<?xml version="1.0" encoding="UTF-8" standalone="no"?>
<!DOCTYPE svg PUBLIC "-//W3C//DTD SVG 1.1//EN" "http://www.w3.org/Graphics/SVG/1.1/DTD/svg11.dtd">
<svg width="100%" height="100%" viewBox="0 0 2210 515" version="1.1" xmlns="http://www.w3.org/2000/svg" xmlns:xlink="http://www.w3.org/1999/xlink" xml:space="preserve" xmlns:serif="http://www.serif.com/" style="fill-rule:evenodd;clip-rule:evenodd;stroke-linejoin:round;stroke-miterlimit:2;">
    <g transform="matrix(1,0,0,1,-79.9261,47.6382)">
        <g transform="matrix(4.16667,0,0,4.16667,321.98,435.069)">
            <path d="M0,-70.444L17.784,-70.444L-11.431,-0.628L-40.458,-70.444L-22.704,-70.444L-22.704,-75.285L-58.093,-75.285L-58.093,-70.278L-46.93,-70.278L-15.191,4.841L-8.015,4.841L23.732,-70.278L34.888,-70.278L34.888,-75.285L0,-75.285L0,-70.444Z" style="fill:rgb(199,220,201);fill-rule:nonzero;"/>
        </g>
        <g transform="matrix(4.16667,0,0,4.16667,602.279,455.239)">
            <path d="M0,-80.627L-21.201,-80.627L-21.201,-74.116L-7.846,-74.116L-7.846,-6.508L-21.201,-6.508L-21.201,0L13.186,0L13.186,-6.508L0,-6.508L0,-80.627Z" style="fill:rgb(199,220,201);fill-rule:nonzero;"/>
        </g>
        <g transform="matrix(4.16667,0,0,4.16667,566.806,-47.6382)">
            <path d="M0,13.523C2.111,13.523 3.755,12.883 4.924,11.601C6.093,10.324 6.677,8.682 6.677,6.677C6.677,4.675 6.093,3.062 4.924,1.836C3.755,0.614 2.111,0 0,0C-2.116,0 -3.758,0.614 -4.924,1.836C-6.093,3.062 -6.677,4.675 -6.677,6.677C-6.677,8.682 -6.093,10.324 -4.924,11.601C-3.758,12.883 -2.116,13.523 0,13.523" style="fill:rgb(199,220,201);fill-rule:nonzero;"/>
        </g>
        <g transform="matrix(4.16667,0,0,4.16667,1073.86,275.093)">
            <path d="M0,32.722L0,-7.177C0,-18.638 -2.783,-27.181 -8.347,-32.801C-13.914,-38.42 -22.037,-41.231 -32.719,-41.231C-40.958,-41.231 -47.66,-39.616 -52.834,-36.39C-57.275,-33.619 -60.582,-29.983 -62.768,-25.493L-62.768,-38.561L-87.14,-38.561L-87.14,-28.043L-74.785,-28.043L-74.785,32.722L-87.14,32.722L-87.14,43.235L-46.408,43.235L-46.408,32.722L-62.267,32.722L-62.267,-2.671C-62.267,-11.351 -59.987,-18.053 -55.423,-22.786C-50.859,-27.514 -44.295,-29.879 -35.724,-29.879C-28.27,-29.879 -22.536,-27.876 -18.531,-23.871C-14.523,-19.864 -12.521,-13.63 -12.521,-5.174L-12.521,32.722L-28.379,32.722L-28.379,43.235L12.352,43.235L12.352,32.722L0,32.722Z" style="fill:rgb(199,220,201);fill-rule:nonzero;"/>
        </g>
        <g transform="matrix(4.16667,0,0,4.16667,1525.27,466.367)">
            <path d="M0,-85.134L-28.712,-85.134L-28.712,-72.281L-15.357,-72.281L-15.357,-35.722C-15.357,-31.38 -16.276,-27.569 -18.112,-24.289C-19.949,-21.005 -22.646,-18.469 -26.208,-16.69C-29.772,-14.912 -34.054,-14.02 -39.061,-14.02C-45.963,-14.02 -51.164,-15.859 -54.67,-19.531C-58.176,-23.204 -59.929,-28.821 -59.929,-36.392L-59.929,-85.134L-86.972,-85.134L-86.972,-72.281L-75.121,-72.281L-75.121,-33.717C-75.121,-26.262 -73.897,-20.03 -71.446,-15.023C-69,-10.015 -65.383,-6.26 -60.597,-3.756C-55.811,-1.252 -49.912,0 -42.9,0C-35.223,0 -28.742,-1.53 -23.452,-4.587C-19.476,-6.892 -16.556,-9.842 -14.69,-13.437L-14.69,-2.67L11.853,-2.67L11.853,-15.522L0,-15.522L0,-85.134Z" style="fill:rgb(199,220,201);fill-rule:nonzero;"/>
        </g>
        <g transform="matrix(4.16667,0,0,4.16667,2246.55,170.064)">
            <path d="M0,49.914L0,17.695C0,5.678 -2.647,-3.365 -7.929,-9.43C-13.218,-15.495 -21.147,-18.528 -31.719,-18.528C-39.509,-18.528 -46.157,-16.858 -51.667,-13.52C-56.565,-10.551 -60.115,-6.565 -62.327,-1.573C-64.202,-6.28 -66.816,-10.024 -70.196,-12.769C-74.928,-16.608 -81.243,-18.528 -89.142,-18.528C-96.487,-18.528 -102.748,-16.885 -107.922,-13.603C-112.188,-10.896 -115.32,-7.288 -117.355,-2.806L-117.355,-15.858L-149.071,-15.858L-149.071,2.673L-138.888,2.673L-138.888,49.914L-149.071,49.914L-149.071,68.442L-104.668,68.442L-104.668,49.914L-116.017,49.914L-116.017,21.536C-116.017,15.305 -114.408,10.434 -111.179,6.93C-107.952,3.424 -103.333,1.671 -97.323,1.671C-91.87,1.671 -87.724,3.257 -84.885,6.429C-82.049,9.6 -80.628,14.247 -80.628,20.367L-80.628,49.914L-91.981,49.914L-91.981,68.442L-46.91,68.442L-46.91,49.914L-58.093,49.914L-58.093,21.368C-58.093,17.252 -57.37,13.718 -55.924,10.768C-54.478,7.821 -52.335,5.567 -49.496,4.008C-46.658,2.451 -43.293,1.671 -39.396,1.671C-33.945,1.671 -29.797,3.257 -26.961,6.429C-24.122,9.6 -22.704,14.247 -22.704,20.367L-22.704,49.914L-34.056,49.914L-34.056,68.442L10.35,68.442L10.35,49.914L0,49.914Z" style="fill:rgb(199,220,201);fill-rule:nonzero;"/>
        </g>
    </g>
</svg>
