<?xml version="1.0" encoding="UTF-8" standalone="no"?>
<!DOCTYPE svg PUBLIC "-//W3C//DTD SVG 1.1//EN" "http://www.w3.org/Graphics/SVG/1.1/DTD/svg11.dtd">
<svg width="100%" height="100%" viewBox="0 0 1253 1144" version="1.1" xmlns="http://www.w3.org/2000/svg" xmlns:xlink="http://www.w3.org/1999/xlink" xml:space="preserve" xmlns:serif="http://www.serif.com/" style="fill-rule:evenodd;clip-rule:evenodd;stroke-linejoin:round;stroke-miterlimit:2;">
    <g transform="matrix(0.912435,0,0,0.936704,35.5846,44.9991)">
        <rect id="Plan-de-travail1" serif:id="Plan de travail1" x="-39" y="-48.04" width="1373.17" height="1220.68" style="fill:none;"/>
        <g id="Plan-de-travail11" serif:id="Plan de travail1">
            <g transform="matrix(0.109597,0,0,-0.106757,-49.0214,1143.9)">
                <g transform="matrix(0.999218,-0.0395468,0.0395468,0.999218,-214.523,257.393)">
                    <path d="M5755,11026C5646,10969 5594,10948 5521,10931C5449,10915 5408,10898 5349,10862L5272,10815L5241,10713L5209,10612L5221,10438L5232,10265L5201,10141C5170,10021 5166,10013 5091,9908C5018,9806 5006,9795 4908,9731C4813,9669 4793,9661 4675,9630C4529,9593 4402,9532 4265,9433C4187,9376 4185,9374 4172,9315C4161,9265 4151,9247 4109,9204L4059,9153L4104,9112C4129,9089 4159,9070 4170,9070C4199,9070 4195,9053 4164,9046C4149,9042 4109,9012 4074,8978C4011,8918 4010,8917 3941,8912C3875,8908 3869,8909 3833,8937C3802,8962 3766,8974 3635,9003C3497,9034 3321,9060 3245,9060C3231,9060 3220,9053 3217,9040C3214,9029 3205,9020 3196,9020C3184,9020 3180,9030 3180,9059C3180,9093 3174,9102 3135,9134C3093,9169 3090,9174 3090,9220C3090,9260 3094,9271 3111,9281C3130,9291 3132,9298 3127,9347C3124,9377 3119,9405 3116,9408C3112,9411 3073,9419 3028,9427C2950,9439 2945,9439 2925,9420C2908,9404 2890,9400 2839,9400C2776,9400 2774,9401 2763,9430L2752,9460L2662,9460C2551,9460 2539,9451 2569,9391C2583,9365 2590,9332 2590,9298C2590,9269 2600,9200 2612,9145C2632,9051 2638,9038 2721,8911L2809,8777L2821,8536C2833,8298 2833,8294 2861,8254L2888,8214L2853,8176C2832,8154 2812,8141 2803,8144C2795,8147 2763,8150 2732,8150C2676,8150 2675,8151 2652,8191C2636,8219 2624,8229 2612,8226C2603,8223 2552,8214 2500,8205C2448,8196 2402,8183 2398,8177C2370,8128 2373,8128 2256,8165C2195,8184 2145,8198 2145,8197C2144,8196 2125,8168 2102,8134C2066,8080 2057,8073 2013,8063C1968,8052 1963,8053 1939,8076C1925,8089 1892,8137 1865,8183C1839,8228 1788,8304 1752,8351L1687,8437L1581,8451C1456,8466 1319,8464 1308,8447C1304,8440 1295,8409 1289,8378L1277,8320L1164,8320C1079,8320 1050,8317 1050,8308C1049,8273 1035,8270 970,8292C910,8312 900,8312 806,8301C675,8286 517,8250 407,8210L319,8178L283,8106L248,8034L289,7952L331,7869L403,7875C443,7878 495,7890 520,7901L565,7921L613,7901C649,7886 661,7875 658,7863C656,7851 646,7846 630,7847C573,7852 430,7853 426,7849C424,7847 419,7820 415,7789L408,7734L454,7723C486,7716 516,7716 547,7722C604,7735 675,7718 666,7694C663,7685 660,7670 660,7659C660,7634 618,7633 582,7658C560,7672 537,7674 454,7672C361,7669 350,7667 321,7642C287,7614 262,7541 281,7529C287,7526 336,7511 391,7495L490,7468L491,7406C491,7353 497,7336 534,7275L576,7205L640,7198L705,7190L750,7240C789,7284 800,7290 833,7290C861,7290 877,7283 898,7261C919,7239 949,7226 1027,7205C1118,7180 1134,7172 1172,7133L1214,7090L1175,7090C1114,7090 1108,7082 1117,7019L1125,6965L1176,6956C1226,6948 1229,6949 1290,6990C1324,7013 1366,7036 1383,7041C1411,7049 1418,7046 1448,7017C1481,6986 1482,6984 1478,6913L1475,6840L1522,6820C1548,6809 1571,6800 1575,6800C1578,6800 1594,6816 1611,6835C1653,6882 1687,6882 1729,6835L1760,6800L1860,6817L1961,6833L2011,6783L1998,6689L1984,6595L2014,6533L2044,6470L2125,6476L2205,6483L2228,6412C2250,6343 2252,6341 2288,6334C2354,6323 2361,6319 2382,6276L2402,6234L2361,6168C2331,6122 2316,6084 2309,6039L2298,5975L2394,5885C2480,5805 2490,5791 2490,5760C2490,5741 2493,5701 2497,5672C2503,5620 2506,5616 2576,5557C2631,5511 2673,5487 2752,5455C2918,5388 2997,5344 3015,5310L3031,5280L2970,5280C2923,5280 2897,5287 2850,5310C2817,5327 2787,5340 2783,5340C2776,5340 2690,5208 2690,5198C2690,5196 2717,5171 2749,5143L2808,5091L2853,5130C2896,5168 2901,5170 2967,5170L3036,5170L3087,5117C3137,5066 3138,5064 3142,4997C3145,4931 3144,4929 3114,4910L3082,4889L3056,4934C3024,4989 2918,5084 2909,5067C2905,5060 2895,5028 2886,4996L2871,4937L2942,4864L3012,4791L3006,4693L2999,4595L3125,4530C3237,4472 3260,4455 3346,4369L3442,4273L3450,4174C3464,4024 3463,4017 3435,4084C3405,4156 3267,4342 3205,4394L3158,4432L3120,4415C3098,4405 3074,4390 3067,4381C3054,4366 3037,4157 3003,3620L2997,3525L3040,3472C3063,3442 3080,3416 3077,3413C3074,3411 3055,3413 3034,3419C3010,3426 2994,3426 2990,3420C2987,3415 2976,3344 2966,3263C2914,2821 2890,2679 2838,2510C2810,2419 2776,2284 2761,2209L2734,2074L2657,1984C2581,1895 2580,1893 2503,1870C2460,1857 2424,1845 2422,1844C2419,1842 2467,1771 2497,1731C2499,1728 2564,1716 2641,1704C2719,1691 2784,1680 2785,1678C2787,1676 2791,1639 2795,1595C2802,1515 2802,1514 2776,1502C2753,1492 2750,1485 2750,1440C2750,1394 2752,1390 2778,1385C2852,1369 2847,1367 2866,1415C2875,1440 2886,1460 2890,1460C2893,1460 2904,1445 2912,1426C2924,1402 2954,1377 3018,1336L3107,1280L3375,1280L3458,1170C3503,1109 3546,1060 3553,1060C3560,1060 3604,1071 3651,1085C3756,1116 3760,1116 3875,1083L3969,1057L3975,965L4170,944C4361,923 4493,923 4666,946L4708,951L4685,1041L4662,1132L4684,1126C4707,1120 4920,1086 5001,1075C5043,1070 5050,1065 5077,1022L5106,975L5196,981C5245,984 5286,987 5286,986C5287,985 5304,951 5325,910C5346,869 5364,833 5365,832C5367,830 5385,846 5405,868L5441,908L5534,877L5628,846L5635,795L5641,744L5729,700C5817,657 5817,657 5834,603L5851,549L5938,552L6024,555L6033,586C6041,612 6049,619 6079,624C6160,637 6192,631 6254,591C6310,555 6322,552 6403,547L6492,542L6598,635C6693,717 6710,728 6755,734C6783,738 6824,751 6847,762C6884,781 6889,786 6884,809C6880,823 6868,878 6855,930C6838,999 6831,1069 6827,1183L6821,1340L6875,1458C6926,1569 6933,1579 7020,1661C7101,1737 7118,1748 7158,1754C7206,1760 7204,1759 7523,2003L7641,2093L7735,2001L7850,1994C7942,1989 7976,1991 8019,2004C8049,2013 8079,2020 8085,2020C8090,2020 8110,1994 8128,1962L8160,1903L8317,1897C8585,1885 8635,1887 8672,1910C8695,1924 8723,1930 8763,1930L8820,1930L8820,1805L8998,1757C9095,1731 9231,1700 9299,1688C9422,1667 9424,1667 9544,1685L9665,1704L9797,1830L9919,1849C9986,1859 10042,1869 10045,1871C10047,1873 10052,1926 10056,1988L10063,2100L10136,2140C10207,2179 10212,2184 10248,2256C10281,2321 10293,2335 10335,2358C10379,2382 10387,2393 10416,2459L10448,2533L10587,2604C10786,2705 10769,2688 10731,2754L10700,2810L10742,2867C10769,2904 10791,2950 10805,3000L10827,3075L10793,3170C10774,3222 10757,3266 10755,3268C10753,3270 10736,3241 10716,3203L10680,3134L10542,3148C10425,3160 10400,3165 10373,3186C10347,3206 10330,3210 10278,3210C10214,3210 10213,3211 10122,3278C10035,3342 10030,3347 10033,3379C10035,3410 10039,3415 10080,3428L10125,3443L10086,3474C10064,3491 10036,3514 10022,3526L9997,3546L10048,3586L10099,3625L10100,3776L10100,3927L9999,3955C9943,3971 9892,3990 9885,3997C9878,4003 9869,4026 9865,4047C9857,4094 9847,4106 9798,4131C9761,4150 9760,4152 9760,4205L9760,4260L9921,4260L10030,4338L10140,4415L10140,4638L9972,4762L9966,4840L9959,4917L9908,4923C9872,4928 9845,4938 9821,4958C9790,4983 9785,4994 9782,5034L9779,5081L9825,5101C9860,5117 9880,5136 9915,5187L9959,5253L9922,5304C9781,5501 9781,5500 9749,5500C9728,5500 9720,5504 9723,5513C9726,5519 9740,5553 9755,5587L9782,5649L9692,5749L9601,5848L9521,5793C9447,5741 9436,5737 9372,5732C9309,5728 9298,5724 9256,5687L9209,5647L9244,5611C9291,5563 9291,5534 9243,5488C9215,5461 9188,5447 9141,5435C9081,5420 9077,5420 9064,5437C9025,5486 9026,5489 9081,5512C9130,5533 9135,5539 9166,5604L9199,5675L9149,5705C9106,5731 9100,5739 9100,5769C9100,5789 9112,5823 9130,5852C9160,5900 9160,5901 9144,5933L9127,5965L9234,6065L9340,6165L9346,6285C9350,6351 9357,6413 9361,6422C9367,6434 9389,6441 9430,6446L9489,6453L9619,6660C9710,6806 9753,6886 9764,6925L9779,6982L9747,6975C9650,6955 9650,6955 9650,6987C9650,7011 9661,7027 9703,7062C9809,7152 9830,7159 9830,7106C9830,7087 9834,7069 9838,7066C9842,7064 9890,7064 9944,7067L10042,7073L10091,7134L10141,7195L10134,7265C10131,7304 10115,7369 10100,7411L10071,7487L10101,7581L10130,7675L10113,7792L10096,7910L10145,8232L10194,8555L10380,8747L10400,8855C10411,8915 10420,8971 10420,8980C10420,8991 10387,9006 10297,9033L10174,9070L10064,9050C10004,9039 9947,9028 9938,9026C9927,9024 9906,9041 9879,9075C9840,9124 9834,9128 9782,9134C9741,9139 9724,9137 9719,9128C9694,9085 9682,9078 9622,9071L9560,9064L9520,9111C9482,9156 9479,9158 9438,9153C9334,9140 9325,9136 9328,9106C9332,9079 9331,9079 9283,9082L9235,9085L9122,9234C9015,9376 9006,9385 8947,9412C8913,9427 8880,9440 8874,9440C8868,9440 8839,9427 8809,9411C8767,9389 8733,9380 8655,9372L8555,9361L8445,9479L8395,9435C8349,9393 8342,9390 8289,9390L8232,9390L8159,9474L8086,9559L7929,9616L7773,9673L7749,9744C7730,9801 7724,9843 7720,9955C7714,10133 7705,10138 7635,10005C7600,9937 7572,9898 7540,9871L7494,9832L7384,9829C7286,9826 7271,9828 7246,9846L7219,9866L7253,9952L7217,9984L7181,10015L7211,10173L7125,10259L7055,10250C7017,10245 6954,10240 6916,10239L6846,10237L6834,10273C6817,10323 6731,10433 6715,10426C6708,10424 6671,10418 6633,10415L6563,10408L6528,10456C6501,10493 6491,10519 6485,10564C6479,10616 6473,10628 6424,10681C6394,10713 6368,10741 6365,10742C6363,10744 6329,10717 6291,10682L6220,10619L6173,10646C6116,10679 5980,10780 5980,10790C5980,10794 5985,10821 5991,10851C6002,10905 6001,10908 5957,11003C5932,11056 5908,11100 5903,11100C5899,11100 5832,11066 5755,11026ZM5933,10977L5970,10895L5955,10840C5947,10810 5940,10782 5940,10779C5940,10767 6097,10651 6164,10615L6232,10577L6296,10641L6360,10704L6404,10655C6441,10613 6449,10596 6454,10550C6459,10510 6471,10480 6503,10433C6543,10372 6546,10370 6580,10374C6599,10377 6638,10382 6666,10386L6718,10392L6758,10339C6780,10309 6801,10268 6805,10247C6809,10227 6816,10208 6820,10205C6825,10202 6893,10205 6971,10210L7113,10221L7144,10191L7174,10161L7160,10079L7147,9996L7180,9969L7213,9941L7179,9857L7212,9829C7257,9790 7276,9786 7404,9794L7515,9801L7568,9853C7598,9882 7636,9932 7653,9965L7685,10025L7691,9910C7697,9798 7724,9684 7754,9653C7760,9647 7808,9626 7860,9607C8077,9528 8061,9537 8146,9439L8224,9348L8295,9355C8358,9361 8369,9365 8403,9398L8442,9435L8490,9381L8539,9327L8652,9339C8741,9349 8777,9357 8820,9379L8875,9408L8932,9383C8986,9359 8997,9348 9105,9204C9218,9054 9221,9050 9258,9050C9278,9050 9311,9047 9331,9044L9366,9038L9358,9108L9410,9115C9462,9122 9462,9122 9510,9075L9557,9029L9631,9039C9692,9047 9708,9053 9723,9074C9737,9094 9750,9100 9779,9100C9813,9100 9822,9094 9861,9044C9897,8999 9909,8990 9930,8993C9944,8995 10005,9005 10067,9015L10179,9034L10273,9006C10325,8991 10372,8975 10377,8972C10385,8967 10382,8934 10369,8866C10349,8758 10352,8763 10234,8640L10162,8565L10112,8235L10063,7904L10097,7678L10068,7583L10039,7489L10065,7411C10079,7368 10095,7305 10101,7271L10111,7209L10025,7101L9943,7101L9860,7100L9860,7128C9860,7143 9856,7161 9852,7167C9837,7190 9769,7160 9693,7098L9620,7037L9620,6912L9672,6926C9701,6933 9726,6937 9728,6935C9739,6924 9701,6854 9590,6676L9469,6482L9412,6475C9321,6464 9324,6469 9316,6318L9310,6185L9199,6079L9089,5973L9106,5937C9123,5901 9123,5900 9097,5861C9076,5830 9070,5808 9070,5767C9070,5715 9071,5713 9110,5691C9156,5666 9156,5665 9134,5610C9120,5575 9107,5564 9048,5534L8979,5499L9010,5457C9072,5372 9056,5378 9148,5403C9214,5421 9238,5433 9270,5465C9321,5515 9326,5567 9283,5612L9256,5640L9282,5666C9303,5688 9321,5694 9381,5700C9447,5706 9462,5712 9521,5753C9558,5779 9590,5800 9593,5800C9600,5800 9689,5707 9720,5667L9742,5639L9710,5567C9692,5527 9675,5489 9673,5483C9669,5474 9682,5470 9716,5470C9764,5470 9766,5468 9802,5417C9822,5389 9856,5340 9879,5309L9919,5253L9884,5202C9860,5166 9834,5142 9800,5125L9750,5100L9750,5036C9750,4973 9750,4972 9794,4936C9825,4911 9853,4898 9883,4894L9928,4888L9935,4816L9942,4745L10021,4687L10100,4628L10100,4527L10099,4425L10003,4358L9906,4290L9717,4290L9724,4244C9727,4218 9730,4182 9730,4164C9730,4135 9736,4128 9779,4104C9824,4079 9829,4072 9840,4023C9846,3994 9856,3968 9861,3964C9867,3961 9915,3946 9968,3931L10065,3903L10068,3774L10070,3645L10006,3594L9942,3544L9998,3501L10054,3457L10027,3443C10003,3431 10000,3423 10000,3380L10000,3331L10100,3255L10199,3180L10264,3180C10318,3180 10333,3176 10358,3156C10383,3134 10405,3129 10535,3116C10616,3107 10686,3100 10691,3100C10696,3100 10711,3121 10724,3148L10748,3195L10759,3165C10766,3149 10776,3122 10782,3107C10800,3062 10767,2959 10710,2879L10662,2813L10690,2762L10718,2710L10686,2691C10668,2680 10603,2646 10540,2616L10425,2561L10393,2488C10365,2423 10356,2411 10309,2383C10263,2355 10250,2340 10218,2276C10183,2206 10177,2200 10108,2162L10035,2121L10025,2008L10015,1896L9901,1878L9787,1861L9725,1800L9664,1740L9546,1719L9429,1699L9287,1724C9209,1738 9098,1763 9040,1779C8982,1795 8916,1813 8893,1819L8850,1831L8850,1958L8781,1965C8718,1971 8708,1970 8668,1946L8624,1921L8402,1927L8179,1933L8155,1979C8110,2068 8113,2066 8033,2041C7972,2023 7947,2021 7854,2026L7745,2032L7695,2085L7645,2139L7418,1965C7221,1814 7186,1791 7145,1784C7103,1778 7086,1766 7001,1689C6904,1601 6903,1598 6846,1472L6788,1345L6793,1185C6797,1058 6803,1002 6824,915C6849,814 6850,805 6834,793C6819,782 6734,760 6706,760C6699,760 6646,719 6589,669L6485,579L6405,582C6329,585 6320,588 6259,627L6194,670L6119,660C6078,655 6040,650 6033,650C6027,650 6016,634 6010,615L5998,580L5874,580L5857,633C5840,684 5838,686 5757,725L5675,765L5668,813C5664,840 5659,864 5656,867C5653,870 5601,889 5540,910L5430,948L5405,919C5392,903 5380,890 5378,890C5376,890 5359,920 5340,956L5305,1021L5214,1014L5122,1008L5095,1053C5071,1095 5064,1100 5022,1105C4996,1109 4896,1124 4800,1140C4704,1155 4624,1167 4623,1166C4621,1165 4631,1123 4643,1072L4666,981L4646,976C4573,959 4343,959 4182,976L4010,994L4010,1036C4010,1068 4006,1080 3993,1084C3983,1087 3927,1103 3869,1119L3763,1150L3661,1121L3559,1093L3488,1184C3449,1234 3412,1283 3406,1293C3397,1308 3378,1310 3258,1310L3120,1310L3034,1365C2971,1406 2945,1429 2935,1454C2922,1485 2903,1500 2879,1500C2873,1500 2860,1479 2849,1454C2833,1418 2824,1409 2807,1412C2773,1417 2771,1466 2804,1482C2829,1493 2830,1495 2830,1597C2830,1680 2827,1702 2815,1706C2807,1709 2737,1722 2660,1734L2520,1755L2472,1827L2538,1848C2602,1869 2608,1874 2685,1968L2766,2065L2788,2185C2801,2251 2835,2386 2865,2485C2920,2665 2949,2837 3000,3270C3007,3328 3016,3378 3019,3382C3023,3386 3052,3382 3084,3374C3116,3366 3146,3360 3152,3362C3157,3364 3132,3404 3095,3452L3029,3538L3055,3907C3086,4361 3085,4356 3115,4376C3148,4398 3171,4388 3227,4326C3320,4223 3387,4119 3430,4007C3453,3948 3475,3900 3480,3900C3500,3900 3501,3930 3489,4098L3476,4274L3379,4380C3290,4477 3274,4490 3174,4542C3015,4625 3027,4609 3039,4715L3050,4805L2980,4875C2915,4941 2910,4948 2916,4978C2920,4996 2925,5012 2929,5014C2941,5022 2998,4964 3034,4908C3054,4876 3073,4850 3075,4850C3078,4850 3103,4865 3131,4883L3181,4915L3169,5085L3107,5148L3046,5210L2971,5210C2901,5210 2895,5208 2854,5174L2810,5139L2782,5159C2730,5196 2729,5201 2761,5253C2777,5279 2792,5300 2795,5300C2798,5300 2823,5289 2850,5275C2892,5254 2913,5250 2994,5250L3089,5250L3057,5306C3027,5357 3018,5365 2929,5410C2876,5437 2794,5474 2747,5493C2691,5516 2638,5547 2597,5581L2533,5634L2526,5724C2522,5774 2515,5817 2510,5820C2504,5823 2463,5863 2416,5908L2333,5990L2342,6041C2347,6071 2369,6121 2396,6165L2441,6238L2410,6293C2380,6346 2376,6349 2326,6360L2273,6371L2252,6444L2231,6516L2146,6512L2062,6508L2040,6551C2019,6592 2018,6598 2030,6684C2037,6734 2044,6780 2047,6786C2049,6792 2031,6813 2007,6833L1962,6869L1865,6851L1769,6833L1742,6866C1718,6896 1709,6900 1668,6900C1629,6900 1618,6895 1596,6869C1573,6842 1566,6840 1542,6847C1517,6856 1515,6860 1512,6925C1509,6987 1506,6996 1469,7040L1429,7088L1387,7077C1364,7072 1317,7047 1283,7023C1227,6984 1217,6980 1188,6988C1164,6994 1154,7003 1152,7019C1147,7050 1164,7060 1228,7060C1256,7060 1280,7063 1280,7068C1280,7072 1250,7105 1213,7141C1147,7205 1142,7208 1045,7235C972,7255 937,7270 915,7291C888,7316 876,7320 829,7320C776,7320 773,7318 736,7275C699,7230 697,7229 647,7232C596,7235 596,7235 560,7295C532,7343 524,7368 520,7424L515,7493L412,7523C353,7541 310,7558 310,7566C310,7573 322,7592 336,7609C362,7640 363,7640 458,7640C527,7639 561,7635 574,7625C585,7617 615,7610 641,7610C685,7610 688,7612 694,7641C697,7658 700,7687 700,7705C700,7735 697,7738 653,7749C625,7757 582,7759 544,7755C459,7745 442,7752 448,7791L453,7823L571,7816L690,7809L690,7901L624,7930L558,7960L517,7936C487,7918 457,7911 411,7909L347,7906L318,7965C291,8017 289,8027 299,8059C322,8137 340,8153 441,8187C553,8225 691,8256 815,8270C901,8280 909,8280 973,8255C1058,8223 1068,8224 1072,8258L1075,8285L1299,8291L1310,8328C1315,8349 1323,8380 1326,8398L1333,8430L1404,8430C1443,8430 1519,8425 1573,8418L1671,8406L1734,8320C1769,8273 1814,8206 1834,8170C1854,8134 1887,8085 1908,8061L1947,8017L2014,8030C2080,8042 2081,8043 2121,8102C2144,8135 2167,8159 2174,8157C2185,8153 2325,8108 2370,8095C2380,8092 2392,8102 2404,8124C2421,8156 2427,8159 2510,8174C2558,8183 2602,8190 2607,8190C2613,8190 2625,8175 2635,8156C2651,8126 2659,8122 2704,8116C2818,8103 2832,8106 2882,8158L2929,8205L2898,8255L2866,8305L2842,8787L2755,8918C2659,9062 2637,9124 2624,9285C2620,9329 2611,9378 2603,9393C2595,9409 2591,9424 2594,9427C2597,9430 2630,9429 2668,9425C2732,9419 2737,9416 2747,9389C2758,9361 2760,9360 2831,9360C2891,9360 2908,9364 2926,9381C2947,9401 2955,9402 3017,9394L3085,9385L3091,9347C3096,9317 3093,9307 3079,9300C3066,9292 3061,9275 3058,9224L3055,9158L3103,9118C3147,9080 3150,9075 3150,9029L3150,8980L3195,8980C3233,8980 3240,8983 3240,8999C3240,9010 3244,9021 3248,9024C3265,9034 3459,9008 3612,8974C3699,8956 3771,8940 3773,8940C3775,8940 3794,8927 3815,8910C3850,8882 3859,8880 3933,8880L4013,8880L4085,8944C4133,8988 4178,9018 4223,9036C4297,9066 4296,9073 4213,9091C4179,9099 4151,9113 4133,9132L4105,9161L4147,9200C4178,9230 4191,9252 4200,9292C4216,9358 4216,9359 4310,9424C4430,9508 4549,9563 4690,9599C4806,9629 4823,9637 4926,9705C5030,9774 5043,9785 5112,9882C5153,9939 5189,9991 5193,9997C5198,10004 5215,10069 5233,10142L5266,10275L5242,10605L5300,10795L5371,10838C5423,10869 5466,10886 5536,10901C5610,10918 5656,10936 5757,10991C5828,11028 5887,11059 5890,11059C5893,11059 5912,11022 5933,10977Z" fill="#8ea18c" />
                </g>
                <g transform="matrix(0.999218,-0.0395468,0.0395468,0.999218,-214.523,257.393)">
                    <path d="M2382,9504C2371,9492 2348,9351 2355,9342C2357,9340 2381,9342 2409,9346L2461,9353L2454,9429C2450,9471 2442,9508 2436,9512C2419,9524 2396,9521 2382,9504ZM2420,9429C2420,9390 2417,9380 2404,9380C2390,9380 2389,9387 2394,9418C2397,9438 2400,9463 2400,9473C2400,9483 2405,9488 2410,9485C2416,9482 2420,9457 2420,9429Z" fill="#8ea18c"  />
                </g>
                <g transform="matrix(0.999218,-0.0395468,0.0395468,0.999218,-214.523,257.393)">
                    <path d="M1990,9270C1990,9265 1983,9260 1974,9260C1962,9260 1959,9247 1961,9185C1963,9112 1964,9109 1995,9090C2018,9076 2045,9070 2087,9070C2153,9070 2142,9061 2214,9171L2230,9197L2138,9232C2025,9275 1990,9284 1990,9270ZM2063,9225C2087,9217 2124,9203 2144,9195L2180,9180L2154,9140C2131,9105 2123,9100 2089,9100C2068,9100 2039,9105 2025,9112C2002,9122 2000,9129 2000,9182C2000,9214 2004,9240 2010,9240C2015,9240 2039,9233 2063,9225Z" fill="#8ea18c"  />
                </g>
                <g transform="matrix(0.999218,-0.0395468,0.0395468,0.999218,-214.523,257.393)">
                    <path d="M2338,8980C2299,8960 2282,8945 2286,8936C2289,8928 2287,8919 2282,8916C2273,8911 2282,8843 2292,8836C2293,8835 2321,8812 2353,8786L2410,8738L2499,8755L2587,8772L2562,8835C2541,8888 2527,8907 2469,8954C2432,8985 2400,9010 2398,9010C2396,9009 2369,8996 2338,8980ZM2454,8924C2506,8882 2549,8816 2534,8801C2531,8798 2505,8790 2477,8783C2419,8770 2415,8772 2348,8832C2324,8853 2310,8875 2308,8895C2305,8920 2311,8927 2345,8947C2367,8959 2388,8970 2392,8970C2395,8970 2423,8949 2454,8924Z" fill="#8ea18c"  />
                </g>
                <g transform="matrix(0.999218,-0.0395468,0.0395468,0.999218,-214.523,257.393)">
                    <path d="M1961,8983C1938,8967 1933,8931 1952,8912C1986,8878 2054,8926 2031,8968C2017,8994 1986,9001 1961,8983ZM2000,8944C2000,8935 1995,8930 1988,8932C1970,8938 1967,8960 1984,8960C1993,8960 2000,8953 2000,8944Z" fill="#8ea18c"  />
                </g>
                <g transform="matrix(0.999218,-0.0395468,0.0395468,0.999218,-214.523,257.393)">
                    <path d="M20,8160C-21,8119 10,8050 68,8050C104,8050 130,8078 130,8117C130,8174 61,8201 20,8160ZM94,8128C102,8114 101,8107 88,8094C58,8064 13,8103 40,8136C56,8154 79,8151 94,8128Z" fill="#8ea18c"  />
                </g>
                <g transform="matrix(0.999218,-0.0395468,0.0395468,0.999218,-214.523,257.393)">
                    <path d="M1360,6851C1341,6846 1335,6838 1335,6815C1335,6791 1342,6781 1378,6762L1420,6738L1488,6798L1456,6829C1424,6860 1407,6864 1360,6851ZM1440,6801C1440,6783 1408,6781 1383,6797L1357,6814L1381,6821C1406,6827 1440,6816 1440,6801Z" fill="#8ea18c"  />
                </g>
                <g transform="matrix(0.999218,-0.0395468,0.0395468,0.999218,-214.523,257.393)">
                    <path d="M1616,6744C1612,6733 1627,6708 1661,6669C1712,6609 1726,6604 1778,6619C1801,6625 1800,6627 1750,6693C1703,6755 1697,6760 1661,6760C1635,6760 1620,6755 1616,6744ZM1709,6691C1752,6637 1748,6629 1700,6675C1678,6696 1660,6718 1660,6722C1660,6740 1680,6728 1709,6691Z" fill="#8ea18c"  />
                </g>
                <g transform="matrix(0.999218,-0.0395468,0.0395468,0.999218,-214.523,257.393)">
                    <path d="M1455,6726C1433,6719 1415,6708 1416,6702C1417,6695 1418,6668 1419,6640C1420,6582 1416,6585 1553,6575L1642,6569L1614,6620C1589,6666 1517,6742 1501,6739C1498,6738 1477,6732 1455,6726ZM1531,6677C1546,6665 1563,6645 1569,6633C1580,6611 1579,6610 1531,6610C1461,6610 1450,6616 1450,6655C1450,6687 1459,6696 1495,6698C1501,6699 1517,6689 1531,6677Z" fill="#8ea18c"  />
                </g>
                <g transform="matrix(0.999218,-0.0395468,0.0395468,0.999218,-214.523,257.393)">
                    <path d="M2203,6296C2166,6288 2159,6282 2154,6255C2151,6238 2152,6209 2157,6190C2165,6159 2171,6155 2230,6139C2265,6129 2296,6123 2299,6125C2302,6128 2306,6156 2308,6188C2312,6242 2310,6247 2278,6275C2247,6304 2242,6305 2203,6296ZM2262,6253C2280,6237 2285,6205 2274,6177C2266,6155 2190,6176 2190,6200C2190,6210 2187,6225 2184,6234C2180,6245 2186,6253 2201,6259C2235,6273 2241,6272 2262,6253Z" fill="#8ea18c"  />
                </g>
                <g transform="matrix(0.999218,-0.0395468,0.0395468,0.999218,-214.523,257.393)">
                    <path d="M2098,5943C2050,5938 2041,5925 2052,5873L2061,5830L2141,5830C2184,5830 2220,5833 2220,5836C2220,5851 2154,5949 2145,5948C2140,5947 2118,5945 2098,5943ZM2150,5889C2157,5878 2159,5866 2156,5863C2145,5852 2085,5876 2082,5893C2077,5919 2136,5916 2150,5889Z" fill="#8ea18c"  />
                </g>
                <g transform="matrix(0.999218,-0.0395468,0.0395468,0.999218,-214.523,257.393)">
                    <path d="M2377,5702C2345,5667 2363,5600 2403,5600C2434,5600 2450,5618 2450,5653C2450,5714 2411,5740 2377,5702ZM2420,5660C2420,5638 2404,5625 2395,5640C2386,5654 2399,5692 2411,5685C2416,5681 2420,5670 2420,5660Z" fill="#8ea18c"  />
                </g>
                <g transform="matrix(0.999218,-0.0395468,0.0395468,0.999218,-214.523,257.393)">
                    <path d="M12416,2007C12411,1957 12414,1931 12430,1884C12468,1776 12446,1735 12335,1705L12257,1684L12236,1625L12215,1565L12127,1536C12042,1507 12037,1503 11965,1425C11892,1344 11892,1343 11862,1232L11833,1121L11862,1094C11897,1060 11897,1043 11864,1028C11840,1017 11839,1012 11844,975C11859,885 11869,860 11898,854C11978,836 12002,828 12006,815C12009,808 11994,775 11972,743C11933,688 11932,682 11937,626L11943,568L12014,575C12053,579 12089,582 12094,583C12099,584 12102,558 12101,525C12099,468 12096,463 12058,429L12016,394L12102,342L12187,291L12176,240C12166,190 12166,189 12200,155C12232,124 12245,120 12355,100C12473,80 12476,79 12511,39C12537,10 12553,-1 12566,3C12577,6 12604,14 12626,19C12667,30 12668,31 12679,93C12686,127 12707,203 12726,262C12769,399 12772,484 12735,545C12714,579 12710,597 12710,672C12710,753 12712,764 12746,824C12777,881 12783,903 12791,991C12800,1090 12800,1096 12770,1184C12754,1234 12734,1309 12726,1350C12709,1440 12675,1517 12623,1586L12585,1637L12590,1776C12594,1894 12592,1925 12576,1982C12556,2048 12556,2049 12516,2055C12493,2058 12463,2063 12449,2066C12424,2071 12423,2069 12416,2007ZM12507,2024C12523,2020 12534,2003 12546,1967C12560,1924 12562,1892 12557,1772L12550,1628L12595,1570C12647,1502 12673,1441 12699,1322C12710,1274 12730,1203 12743,1164C12766,1098 12767,1087 12758,996C12750,914 12743,888 12714,836C12682,777 12680,768 12680,676C12680,593 12683,573 12705,530C12726,488 12729,472 12724,418C12721,383 12705,312 12690,260C12674,208 12657,140 12650,109C12639,53 12639,52 12597,46C12559,40 12554,41 12525,74C12496,108 12490,111 12370,131C12235,154 12194,175 12204,215C12206,226 12212,251 12215,272L12222,308L12151,350C12112,373 12080,395 12080,398C12080,401 12091,415 12104,429C12124,451 12130,470 12136,538L12143,622L12074,615C12036,611 11997,606 11988,604C11973,599 11970,606 11970,642C11970,678 11978,697 12015,748L12060,810L12028,840C12008,857 11979,872 11954,875C11897,884 11892,889 11884,947C11879,992 11880,999 11898,1009C11909,1015 11921,1031 11924,1046C11930,1068 11925,1079 11901,1104L11871,1135L11894,1228C11921,1331 11920,1331 12004,1417C12057,1473 12073,1483 12145,1506C12189,1521 12230,1537 12236,1544C12243,1550 12255,1578 12264,1606L12281,1657L12348,1674C12385,1684 12420,1693 12427,1695C12434,1697 12451,1722 12465,1750L12491,1802L12471,1863C12459,1896 12450,1948 12450,1977C12450,2033 12455,2038 12507,2024Z" fill="#8ea18c"  />
                </g>
            </g>
        </g>
    </g>
</svg>
