<?xml version="1.0" encoding="UTF-8" standalone="no"?>
<!DOCTYPE svg PUBLIC "-//W3C//DTD SVG 1.1//EN" "http://www.w3.org/Graphics/SVG/1.1/DTD/svg11.dtd">
<svg width="100%" height="100%" viewBox="0 0 3509 4963" version="1.1" xmlns="http://www.w3.org/2000/svg" xmlns:xlink="http://www.w3.org/1999/xlink" xml:space="preserve" xmlns:serif="http://www.serif.com/" style="fill-rule:evenodd;clip-rule:evenodd;stroke-linejoin:round;stroke-miterlimit:2;">
    <g transform="matrix(4.16667,0,0,4.16667,0,0)">
        <rect x="-0.999" y="0.45" width="841.889" height="1188.7" style="fill:rgb(0,46,38);fill-rule:nonzero;"/>
        <g>
            <clipPath id="_clip1">
                <rect x="-0.999" y="0.45" width="841.889" height="1190.55"/>
            </clipPath>
            <g clip-path="url(#_clip1)">
                <rect x="-0.999" y="1189.15" width="154.665" height="1.85" style="fill:rgb(236,241,237);fill-rule:nonzero;"/>
                <rect x="-0.999" y="1123.52" width="154.665" height="65.63" style="fill:rgb(0,59,49);fill-rule:nonzero;"/>
                <path d="M153.666,1123.52L-0.999,1123.52L-0.999,1122.52L153.666,1122.52L153.666,871.752L154.667,871.752L154.667,1122.52L153.666,1122.52L153.666,1123.52Z" style="fill:rgb(5,74,64);fill-rule:nonzero;"/>
                <rect x="153.666" y="1189.15" width="1.001" height="1.85" style="fill:rgb(220,229,222);fill-rule:nonzero;"/>
                <path d="M154.667,1189.15L153.666,1189.15L153.666,1122.52L154.676,1122.52L153.677,1122.52L153.677,1122.58L153.666,1122.58L153.666,1123.52L153.679,1123.52C153.706,1130.77 154.039,1137.95 154.667,1145.05L154.667,1189.15Z" style="fill:rgb(5,74,64);fill-rule:nonzero;"/>
                <path d="M648.962,1191L647.921,1191C648.095,1190.39 648.27,1189.77 648.439,1189.15L649.478,1189.15C649.308,1189.77 649.136,1190.38 648.962,1191Z" style="fill:rgb(220,229,222);fill-rule:nonzero;"/>
                <path d="M649.478,1189.15L648.439,1189.15C653.881,1169.42 656.97,1148.73 657.377,1127.41L657.377,1123.52L657.377,1145.59C656.015,1160.52 653.344,1175.07 649.478,1189.15Z" style="fill:rgb(5,74,64);fill-rule:nonzero;"/>
                <path d="M164.11,1191L163.071,1191C162.898,1190.39 162.727,1189.77 162.558,1189.15L163.595,1189.15C163.763,1189.76 163.937,1190.39 164.11,1191Z" style="fill:rgb(220,229,222);fill-rule:nonzero;"/>
                <path d="M163.595,1189.15L162.558,1189.15C158.673,1174.9 156.003,1160.16 154.667,1145.05C154.039,1137.95 153.706,1130.77 153.679,1123.52L154.678,1123.52L154.678,1123.02C154.678,1122.86 154.668,1122.73 154.667,1122.61L154.667,1122.58L154.177,1122.58L154.177,1122.52L154.166,1122.52L154.166,1122.58L153.677,1122.58L153.677,1122.52L657.377,1122.52L657.377,1123.01L657.376,1123.52L154.679,1123.52C154.763,1146.21 157.861,1168.22 163.595,1189.15Z" style="fill:rgb(5,74,64);fill-rule:nonzero;"/>
                <path d="M154.678,1123.52L153.666,1123.52L153.666,1122.58L154.166,1122.58L154.166,1122.52L154.177,1122.52L154.177,1122.58L154.667,1122.58L154.667,1122.61C154.668,1122.73 154.678,1122.86 154.678,1123.02L154.678,1123.52Z" style="fill:rgb(5,74,64);fill-rule:nonzero;"/>
                <path d="M840.89,1122.52L658.441,1122.52L658.441,1118.62C660.585,1006.22 737.266,911.325 840.89,881.494L840.89,1122.52Z" style="fill:rgb(0,59,49);fill-rule:nonzero;"/>
                <rect x="658.441" y="1122.52" width="182.449" height="1" style="fill:rgb(5,74,64);fill-rule:nonzero;"/>
                <path d="M658.441,1118.62L658.441,1100.42C668.024,995.519 742.34,908.69 840.89,880.453L840.89,881.494C737.266,911.325 660.585,1006.22 658.441,1118.62Z" style="fill:rgb(5,74,64);fill-rule:nonzero;"/>
                <path d="M657.377,1123.01L657.377,871.752L658.441,871.752L658.441,1118.61L657.44,1118.6C657.416,1119.9 657.387,1121.2 657.379,1122.52L657.377,1122.52L657.377,1123.01Z" style="fill:rgb(5,74,64);fill-rule:nonzero;"/>
                <rect x="657.377" y="1189.15" width="1.064" height="1.85" style="fill:rgb(220,229,222);fill-rule:nonzero;"/>
                <path d="M658.441,1189.15L657.377,1189.15L657.377,1127.41L657.377,1127.42L658.376,1127.43L657.877,1127.42L658.376,1127.43C658.402,1126.13 658.431,1124.83 658.439,1123.52L658.441,1123.52L658.441,1189.15Z" style="fill:rgb(5,74,64);fill-rule:nonzero;"/>
                <path d="M658.441,1123.52L658.439,1123.52C658.44,1123.35 658.441,1123.18 658.441,1123.02L658.441,1123.52ZM657.377,1123.52L657.376,1123.52L657.377,1123.01L657.377,1123.52ZM658.441,1122.52L657.379,1122.52C657.387,1121.2 657.416,1119.9 657.44,1118.6L658.441,1118.61L658.441,1122.52Z" style="fill:rgb(5,74,64);fill-rule:nonzero;"/>
                <path d="M658.376,1127.43L657.877,1127.42L658.376,1127.43L657.377,1127.42L657.377,1122.52L658.441,1122.52L658.441,1123.02C658.441,1123.18 658.44,1123.35 658.439,1123.52C658.431,1124.83 658.402,1126.13 658.376,1127.43Z" style="fill:rgb(5,74,64);fill-rule:nonzero;"/>
                <path d="M840.89,425.79L800.638,368.224L800.639,368.224L840.89,425.79Z" style="fill:rgb(5,74,64);fill-rule:nonzero;"/>
                <path d="M840.89,618.988L658.441,618.988L658.441,368.224L799.418,368.224L840.89,427.535L840.89,618.988Z" style="fill:rgb(0,59,49);fill-rule:nonzero;"/>
                <path d="M840.89,427.535L799.418,368.224L840.89,427.535Z" style="fill:rgb(5,74,64);fill-rule:nonzero;"/>
                <path d="M840.89,427.535L799.418,368.224L800.638,368.224L840.89,425.79L840.89,427.535Z" style="fill:rgb(5,74,64);fill-rule:nonzero;"/>
                <rect x="658.441" y="870.751" width="182.449" height="1.001" style="fill:rgb(5,74,64);fill-rule:nonzero;"/>
                <rect x="658.441" y="618.988" width="182.449" height="1" style="fill:rgb(5,74,64);fill-rule:nonzero;"/>
                <path d="M515.242,870.751L154.936,870.751L154.936,619.988L339.9,619.988L404.778,712.772L515.242,870.751Z" style="fill:rgb(0,59,49);fill-rule:nonzero;"/>
                <path d="M515.943,871.752L154.936,871.752L154.936,870.751L515.242,870.751L515.943,871.752Z" style="fill:rgb(5,74,64);fill-rule:nonzero;"/>
                <path d="M404.778,712.772L339.9,619.988L404.778,712.772Z" style="fill:rgb(0,59,49);fill-rule:nonzero;"/>
                <path d="M153.853,613.83C151.42,511.905 88.173,424.558 -0.999,387.371C88.173,424.557 151.42,511.905 153.853,613.83Z" style="fill:rgb(5,74,64);fill-rule:nonzero;"/>
                <path d="M153.936,618.988L153.924,618.988C153.918,617.267 153.894,615.543 153.853,613.83C151.42,511.905 88.173,424.557 -0.999,387.371L-0.999,386.288C83.925,421.53 145.5,502.059 153.936,597.455L153.936,368.224L153.936,618.988Z" style="fill:rgb(5,74,64);fill-rule:nonzero;"/>
                <path d="M154.936,871.752L154.166,871.752L154.166,871.252L154.166,871.752L-0.999,871.752L-0.999,870.751L153.936,870.751L153.936,619.988L-0.999,619.988L-0.999,618.988L153.936,618.988L153.926,618.988L153.926,619.488C153.926,619.661 153.936,619.804 153.936,619.927L153.936,619.988L154.936,619.988L154.936,871.752Z" style="fill:rgb(5,74,64);fill-rule:nonzero;"/>
                <path d="M658.441,871.752L515.943,871.752L515.242,870.751L404.778,712.772L339.9,619.988L341.121,619.988L516.463,870.751L657.44,870.751L657.44,619.988L658.441,619.988L658.441,871.752Z" style="fill:rgb(5,74,64);fill-rule:nonzero;"/>
                <path d="M658.441,619.988L154.437,619.988L154.437,619.927L154.936,619.927L154.936,618.988L153.936,618.988L153.936,368.224L154.936,368.224L154.936,618.988L657.44,618.988L657.44,368.224L658.441,368.224L658.441,619.988ZM154.426,619.988L153.936,619.988L153.936,619.927L154.426,619.927L154.426,619.988Z" style="fill:rgb(5,74,64);fill-rule:nonzero;"/>
                <path d="M154.437,619.988L154.426,619.988L154.426,619.927L153.936,619.927C153.936,619.804 153.926,619.661 153.926,619.488L153.926,618.988L154.936,618.988L154.936,619.927L154.437,619.927L154.437,619.988ZM154.426,619.988L154.426,619.927L154.426,619.988Z" style="fill:rgb(5,74,64);fill-rule:nonzero;"/>
                <path d="M153.67,368.224L-0.999,368.224L-0.999,367.224L153.67,367.224L153.67,116.461L153.67,368.224Z" style="fill:rgb(5,74,64);fill-rule:nonzero;"/>
                <rect x="-0.999" y="0.45" width="154.669" height="115.01" style="fill:rgb(0,59,49);fill-rule:nonzero;"/>
                <rect x="-0.999" y="115.46" width="154.669" height="1.001" style="fill:rgb(5,74,64);fill-rule:nonzero;"/>
                <path d="M153.67,115.521L153.67,0.45L154.671,0.45L154.671,115.46L153.67,115.46L153.67,115.521Z" style="fill:rgb(5,74,64);fill-rule:nonzero;"/>
                <path d="M405.617,368.224L153.67,368.224L153.67,115.46L154.68,115.46L153.681,115.46L153.681,115.521L153.67,115.521L153.67,116.461L153.682,116.461C153.709,123.713 154.043,130.907 154.671,138.007L154.671,367.224L383.103,367.224C390.517,367.885 398.032,368.224 405.617,368.224Z" style="fill:rgb(5,74,64);fill-rule:nonzero;"/>
                <path d="M657.381,368.224L405.617,368.224C413.205,368.224 420.715,367.886 428.137,367.224L657.381,367.224L657.381,138.536L657.381,368.224Z" style="fill:rgb(5,74,64);fill-rule:nonzero;"/>
                <path d="M405.617,368.224C398.032,368.224 390.517,367.885 383.103,367.224C261.907,356.419 165.392,259.223 154.671,138.007C154.043,130.907 153.709,123.713 153.682,116.461L154.682,116.461L154.682,115.96C154.68,115.808 154.672,115.678 154.671,115.564L154.671,115.521L154.181,115.521L154.181,115.46L154.17,115.46L154.17,115.521L153.681,115.521L153.681,115.46L657.381,115.46L657.381,115.959L657.38,116.461L154.683,116.461C154.693,119.128 154.744,121.789 154.837,124.436C159.53,258.735 269.792,367.009 405.211,367.224L405.617,367.224C405.625,367.224 405.611,367.224 405.619,367.224C542.581,367.224 654.781,256.656 657.381,120.358L657.381,116.461L657.381,138.536C646.344,259.504 549.23,356.431 428.137,367.224C420.715,367.886 413.205,368.224 405.617,368.224Z" style="fill:rgb(5,74,64);fill-rule:nonzero;"/>
                <path d="M154.682,116.461L153.67,116.461L153.67,115.521L154.17,115.521L154.17,115.46L154.181,115.46L154.181,115.521L154.671,115.521L154.671,115.564C154.672,115.678 154.68,115.808 154.682,115.96L154.682,116.461Z" style="fill:rgb(5,74,64);fill-rule:nonzero;"/>
                <rect x="658.445" y="367.224" width="182.445" height="1" style="fill:rgb(5,74,64);fill-rule:nonzero;"/>
                <rect x="658.445" y="115.46" width="182.445" height="1.001" style="fill:rgb(5,74,64);fill-rule:nonzero;"/>
                <path d="M658.445,111.495L658.445,93.37C661.479,60.162 671.004,28.75 685.726,0.45L686.858,0.45C669.407,33.826 659.219,71.565 658.445,111.495Z" style="fill:rgb(5,74,64);fill-rule:nonzero;"/>
                <path d="M658.445,368.224L657.381,368.224L657.381,120.358L657.381,120.367L658.381,120.377C658.406,119.075 658.434,117.772 658.443,116.461L658.445,116.461L658.445,368.224Z" style="fill:rgb(5,74,64);fill-rule:nonzero;"/>
                <path d="M658.445,116.461L658.443,116.461C658.444,116.295 658.445,116.128 658.445,115.962L658.445,116.461ZM657.381,116.461L657.38,116.461L657.381,115.959L657.381,116.461ZM658.445,115.46L658.383,115.46C658.391,114.162 658.419,112.864 658.444,111.563L658.445,111.556L658.445,115.46Z" style="fill:rgb(5,74,64);fill-rule:nonzero;"/>
                <path d="M657.945,115.96L657.945,115.46L657.381,115.46L657.381,115.96L657.381,0.45L658.445,0.45L658.445,111.556L658.444,111.563C658.419,112.864 658.391,114.162 658.383,115.46L657.945,115.46L657.945,115.96Z" style="fill:rgb(5,74,64);fill-rule:nonzero;"/>
                <path d="M658.381,120.377L657.381,120.367L657.381,115.46L657.945,115.46L657.945,115.96L657.945,115.46L658.445,115.46L658.445,115.962C658.445,116.128 658.444,116.295 658.443,116.461C658.434,117.772 658.406,119.075 658.381,120.377Z" style="fill:rgb(5,74,64);fill-rule:nonzero;"/>
            </g>
        </g>
    </g>
</svg>
