<?xml version="1.0" encoding="UTF-8" standalone="no"?>
<!DOCTYPE svg PUBLIC "-//W3C//DTD SVG 1.1//EN" "http://www.w3.org/Graphics/SVG/1.1/DTD/svg11.dtd">
<svg width="100%" height="100%" viewBox="0 0 606 124" version="1.1" xmlns="http://www.w3.org/2000/svg" xmlns:xlink="http://www.w3.org/1999/xlink" xml:space="preserve" xmlns:serif="http://www.serif.com/" style="fill-rule:evenodd;clip-rule:evenodd;stroke-linejoin:round;stroke-miterlimit:2;">
    <g transform="matrix(0.995221,0,0,1.00993,-23.7293,-13.1133)">
        <rect id="Plan-de-travail1" serif:id="Plan de travail1" x="23.843" y="12.984" width="608.575" height="121.893" style="fill:none;"/>
        <clipPath id="_clip1">
            <rect id="Plan-de-travail11" serif:id="Plan de travail1" x="23.843" y="12.984" width="608.575" height="121.893"/>
        </clipPath>
        <g clip-path="url(#_clip1)">
            <g transform="matrix(1.0048,0,0,0.990164,-2.18942,1.10236)">
                <path d="M185.6,88.4L175.1,88.4L175.1,119.9L167.4,119.9L167.4,88.4L157,88.4L157,81.1L185.6,81.1L185.6,88.4ZM214.1,112.6L214.1,119.9L190.4,119.9L190.4,81.1L214.1,81.1L214.1,88.4L198,88.4L198,96.7L212.7,96.7L212.7,103.9L198,103.9L198,112.6L214.1,112.6ZM233.8,106.4L228,106.4L228,119.9L220.3,119.9L220.3,81.1L235.8,81.1C243,81.1 248.7,86.9 248.7,94C248.7,98.9 245.7,103.3 241.2,105.3L249.8,119.9L241.5,119.9L233.8,106.4ZM228,99.7L235.9,99.7C238.8,99.7 241.2,97.1 241.2,93.9C241.2,90.7 238.8,88.2 235.9,88.2L228,88.2L228,99.7ZM268.4,106.4L262.6,106.4L262.6,119.9L254.9,119.9L254.9,81.1L270.4,81.1C277.6,81.1 283.3,86.9 283.3,94C283.3,98.9 280.3,103.3 275.8,105.3L284.4,119.9L276.1,119.9L268.4,106.4ZM262.6,99.7L270.5,99.7C273.4,99.7 275.8,97.1 275.8,93.9C275.8,90.7 273.4,88.2 270.5,88.2L262.6,88.2L262.6,99.7ZM297.2,81.1L297.2,119.9L289.5,119.9L289.5,81.1L297.2,81.1ZM330.6,88.4L320.1,88.4L320.1,119.9L312.4,119.9L312.4,88.4L302,88.4L302,81.1L330.6,81.1L330.6,88.4ZM331.4,100.5C331.4,89.1 340.3,80.3 351.5,80.3C362.7,80.3 371.7,89.1 371.7,100.5C371.7,111.8 362.7,120.7 351.5,120.7C340.4,120.7 331.4,111.8 331.4,100.5ZM364.1,100.5C364.1,93 358.6,87.7 351.6,87.7C344.6,87.7 339.1,93 339.1,100.5C339.1,107.9 344.6,113.2 351.6,113.2C358.6,113.2 364.1,107.9 364.1,100.5ZM385.3,81.1L385.3,119.9L377.6,119.9L377.6,81.1L385.3,81.1ZM406.6,106.4L400.8,106.4L400.8,119.9L393.1,119.9L393.1,81.1L408.6,81.1C415.8,81.1 421.5,86.9 421.5,94C421.5,98.9 418.5,103.3 414,105.3L422.6,119.9L414.3,119.9L406.6,106.4ZM400.7,99.7L408.6,99.7C411.5,99.7 413.9,97.1 413.9,93.9C413.9,90.7 411.5,88.2 408.6,88.2L400.7,88.2L400.7,99.7ZM451.4,112.6L451.4,119.9L427.7,119.9L427.7,81.1L451.4,81.1L451.4,88.4L435.3,88.4L435.3,96.7L450,96.7L450,103.9L435.3,103.9L435.3,112.6L451.4,112.6ZM455.6,111.1L462.1,107.3C463.5,110.9 466.2,113.2 471,113.2C475.6,113.2 477.2,111.3 477.2,109.1C477.2,106.2 474.6,105.1 468.8,103.4C462.9,101.7 457.1,99.2 457.1,91.8C457.1,84.5 463.2,80.3 469.9,80.3C476.3,80.3 481.2,83.6 483.8,89L477.4,92.7C476,89.8 473.9,87.7 470,87.7C466.8,87.7 464.9,89.4 464.9,91.6C464.9,94 466.4,95.3 472.3,97C478.5,98.9 485,101 485,108.9C485,116.2 479.2,120.6 470.9,120.6C462.9,120.7 457.7,116.8 455.6,111.1Z" style="fill:rgb(227,6,19);fill-rule:nonzero;"/>
            </g>
            <g transform="matrix(1.0048,0,0,0.990164,-2.18942,1.10236)">
                <path d="M422,25.6L422,63.8L419.3,63.8L419.3,57.5C417.1,61.7 412.9,64.4 407.6,64.4C399.8,64.4 393.5,58.2 393.5,50.1C393.5,42 399.8,35.8 407.6,35.8C412.9,35.8 417.1,38.5 419.3,42.7L419.3,25.6L422,25.6ZM419.3,50.2C419.3,43.7 414.2,38.6 407.7,38.6C401.2,38.6 396.1,43.7 396.1,50.2C396.1,56.7 401.2,61.8 407.7,61.8C414.2,61.8 419.3,56.7 419.3,50.2ZM458.1,50.3C458.1,50.7 458,51.2 458,51.6L433.3,51.6C434,57.8 438.7,61.8 444.9,61.8C449.4,61.8 452.8,59.7 454.3,56.8L456.7,58.2C454.5,61.9 450.2,64.4 444.8,64.4C436.4,64.4 430.4,58.4 430.4,50.1C430.4,42.1 436.2,35.8 444.5,35.8C452.9,36 458.1,42.8 458.1,50.3ZM433.3,49L455.3,49C454.7,42.3 450,38.6 444.7,38.6C438.4,38.6 433.9,42.9 433.3,49ZM484.5,56.7C484.5,61.2 480.6,64.5 474.7,64.5C469.2,64.5 465.6,61.9 464.3,58.4L466.6,57C467.6,59.9 470.5,61.8 474.6,61.8C478.4,61.8 481.6,60.1 481.6,56.7C481.6,49.3 465.1,53.5 465.1,43.7C465.1,39.4 468.8,35.9 474.4,35.9C478.8,35.9 482.2,38 483.7,41.4L481.4,42.7C480.3,39.9 477.4,38.5 474.4,38.5C470.9,38.5 467.8,40.4 467.8,43.6C468,51 484.5,46.7 484.5,56.7ZM187.6,53.5C187.6,59.3 183,63.9 177.2,63.9L160.7,63.9L160.7,25.7L176,25.7C181.6,25.7 186,30.2 186,35.7C186,39.4 184,42.5 181.1,44C184.9,45.6 187.6,49.1 187.6,53.5ZM163.7,28.5L163.7,43.1L176,43.1C179.9,43.1 183.1,39.8 183.1,35.8C183.1,31.8 179.9,28.5 176,28.5L163.7,28.5ZM184.7,53.5C184.7,49.3 181.3,45.8 177.2,45.8L163.6,45.8L163.6,61.2L177.2,61.2C181.4,61.1 184.7,57.7 184.7,53.5ZM217.8,54.2L198.7,54.2L195,63.9L191.9,63.9L206.7,25.8L209.8,25.8L224.6,63.9L221.5,63.9L217.8,54.2ZM216.7,51.4L208.2,29.2L199.7,51.4L216.7,51.4ZM259.1,25.7L259.1,63.8L256.5,63.8L234,31L234,63.8L231.1,63.8L231.1,25.7L233.6,25.7L256.2,58.5L256.2,25.7L259.1,25.7ZM314.7,51.1L314.7,25.7L317.6,25.7L317.6,51.1C317.6,57.3 321.5,61.7 328.7,61.7C335.9,61.7 339.8,57.3 339.8,51.1L339.8,25.7L342.7,25.7L342.7,51.1C342.7,59.2 337.1,64.4 328.7,64.4C320.3,64.4 314.7,59.2 314.7,51.1ZM374.3,61.1L374.3,63.8L352.6,63.8L352.6,25.7L374.3,25.7L374.3,28.4L355.5,28.4L355.5,43.2L373,43.2L373,46L355.6,46L355.6,61.1L374.3,61.1ZM306.8,44.8C306.8,33.9 298,25.1 287.1,25.1C276.2,25.1 267.4,33.9 267.4,44.8C267.4,55.7 276.2,64.5 287.1,64.5C290.5,64.5 293.6,63.7 296.4,62.2L294.3,60.1C292.1,61.1 289.7,61.7 287.1,61.7C277.8,61.7 270.3,54.2 270.3,44.8C270.3,35.4 277.8,27.9 287.1,27.9C296.4,27.9 303.9,35.4 303.9,44.8C303.9,49.6 301.9,53.9 298.8,57L290,48.4L288,50.2L305.7,67.8L307.7,66L300.7,58.9C304.6,55.4 306.8,50.4 306.8,44.8Z" style="fill:rgb(132,116,108);fill-rule:nonzero;"/>
            </g>
            <g transform="matrix(1.0048,0,0,0.990164,-2.18942,1.10236)">
                <path d="M39,112.7L26.4,105.7L26.4,40.7L58.4,22.9L71.4,30.1L39,48L39,112.7ZM116.8,91L129.4,84L129.4,40.6L77.9,11.9L64.9,19.1L116.8,48L116.8,91ZM77.9,119.9L45.4,101.8L45.4,116.2L77.9,134.3L129.4,105.6L129.4,91.2L77.9,119.9Z" style="fill:rgb(227,6,19);fill-rule:nonzero;"/>
            </g>
            <g transform="matrix(1.0048,0,0,0.990164,-2.18942,1.10236)">
                <rect x="510.8" y="26.7" width="1.5" height="93.2" style="fill:rgb(132,116,108);"/>
            </g>
            <g transform="matrix(1.0048,0,0,0.990164,-2.18942,1.10236)">
                <rect x="537.9" y="26.6" width="93.3" height="93.3" style="fill:rgb(227,6,19);fill-rule:nonzero;"/>
            </g>
            <g transform="matrix(1.0048,0,0,0.990164,-2.18942,1.10236)">
                <path d="M547.4,113C545.3,112.4 544.6,109.5 546.2,107.9C546.8,107.3 547.4,107.1 548.4,107.1C549.2,107.1 549.4,107.1 549.8,107.4C550.6,107.8 550.6,107.9 550.3,108.3L550,108.7L549.7,108.5C548.2,107.5 546.5,108.5 546.5,110.2C546.5,111.8 548,112.8 549.5,112.1C549.8,111.9 549.8,111.9 549.9,111.3L549.9,110.7L548.4,110.7L548.4,109.8L550.9,109.8L550.9,112.4L550.5,112.7C549.5,113.1 548.3,113.3 547.4,113ZM562.4,113C561.7,112.8 561.2,112.4 560.9,111.9C559.8,110.3 560.4,108.1 562.1,107.3C562.5,107.1 562.8,107.1 563.4,107.1C564.3,107.1 565,107.3 565.6,107.9C566.2,108.5 566.4,109.1 566.4,110.1C566.4,110.8 566.4,111 566.1,111.4C565.8,112.1 565.2,112.6 564.6,112.9C564,113.2 563,113.2 562.4,113ZM564.3,112C565.6,111.3 565.7,109.2 564.4,108.4C563.6,107.9 562.8,107.9 562.1,108.5C561.5,109 561.3,109.8 561.4,110.6C561.7,111.9 563.1,112.6 564.3,112ZM570.3,113C569.7,112.8 569.1,112.2 568.9,111.6C568.8,111.4 568.8,110.5 568.8,109.2L568.8,107.1L569.8,107.1L569.8,109.2C569.8,111.5 569.9,111.6 570.5,112C570.9,112.2 571.6,112.2 572,112C572.6,111.7 572.6,111.5 572.7,109.2L572.7,107.1L573.7,107.1L573.7,109.3C573.7,111.4 573.7,111.5 573.5,111.9C572.9,113 571.6,113.4 570.3,113ZM553.3,113L553.3,107.2L555,107.2C556.6,107.2 556.7,107.2 557.1,107.4C557.9,107.8 558.3,108.8 558,109.7C557.8,110.1 557.3,110.6 557,110.7C556.9,110.7 556.8,110.8 556.8,110.8C556.8,110.8 557.1,111.3 557.5,111.8C557.9,112.4 558.2,112.9 558.3,112.9C558.3,113 558.2,113 557.8,113L557.2,113L555.8,111L554.4,111L554.4,113.1L553.9,113.1C553.5,113.1 553.4,113 553.3,113ZM556.6,109.9C557,109.6 557.1,109.2 557,108.8C556.8,108.2 556.5,108.1 555.4,108.1L554.4,108.1L554.4,110C554.4,110.1 554.6,110.1 555.4,110.1C556.2,110.1 556.4,110 556.6,109.9ZM576.3,113L576.3,107.1L577.8,107.1C579.2,107.1 579.3,107.1 579.7,107.3C580.5,107.7 580.8,108.2 580.8,109.1C580.8,109.7 580.7,110 580.3,110.4C579.8,110.9 579.4,111.1 578.3,111.1L577.3,111.2L577.3,113L576.8,113C576.5,113.1 576.3,113.1 576.3,113ZM579.2,110.1C579.7,109.8 579.9,109.2 579.6,108.7C579.4,108.3 579.1,108.2 578.1,108.2L577.3,108.2L577.3,110.2C577.4,110.3 578.9,110.2 579.2,110.1ZM583,113L583,107.2L587.4,107.2L587.4,108.1L584,108.1L584,109.6L587,109.6L587,110.5L584,110.5L584,112.1L587.4,112.1L587.4,112.9L585.2,112.9C583.5,113.1 583,113.1 583,113ZM593.1,99.1L593.1,93.6L595.1,93.6L595.1,94.7L595.4,94.4C595.6,94.2 595.9,94 596.2,93.8C596.7,93.6 596.8,93.5 597.6,93.5C598.4,93.5 598.6,93.5 599,93.8C600.4,94.5 601.1,95.9 601.1,97.9C601.1,99.8 600.3,101.1 599,101.8C598.6,102 598.3,102 597.7,102C596.7,102 596.2,101.8 595.6,101.2L595.2,100.8L595.2,104.7L593,104.7L593.1,99.1ZM598.2,100C598.9,99.5 599.3,98.3 599.1,97.1C599,96.3 598.7,95.9 598.3,95.5C597.5,94.8 596.1,95.1 595.6,96.1C594.8,97.7 595.4,99.9 596.6,100.3C597.1,100.4 597.8,100.3 598.2,100ZM547,101.8C545.5,101.4 544.6,100.2 544.4,98.3C544.2,96.5 544.9,94.7 546.1,93.9C547.4,93.1 549.2,93.3 550.1,94.3L550.3,94.5L550.3,90.4L552.5,90.4L552.5,101.6L550.5,101.6L550.5,100.6C550.5,100.6 550.3,100.8 550,101C549.2,101.9 548,102.1 547,101.8ZM549,100.2C549.5,100.1 550,99.5 550.2,98.8C550.4,98.1 550.4,96.6 550.1,96.1C549.6,95.1 548.6,94.8 547.6,95.2C546.8,95.6 546.4,96.5 546.5,97.8C546.6,99.6 547.6,100.6 549,100.2ZM556.3,101.9C555.2,101.7 554.1,100.9 553.6,99.9C552.9,98.6 552.9,97 553.6,95.7C554.4,93.9 556.8,93 558.8,93.7C560.2,94.2 561.2,95.9 561.2,97.6L561.2,98.2L558.3,98.2C555,98.2 555.3,98.1 555.5,99C555.9,100.3 557.7,100.7 558.8,99.6L559.2,99.2L561.1,99.2L560.9,99.5C560.4,100.6 559.7,101.2 558.8,101.6C558.1,101.9 557,102 556.3,101.9ZM558.9,96.6C558.9,96.3 558.6,95.7 558.3,95.4C557.3,94.5 555.6,95.1 555.4,96.4L555.3,96.7L558.9,96.7L558.9,96.6ZM564.8,101.9C564,101.8 563.2,101.4 562.8,100.9C562.4,100.5 562.2,100.1 562.1,99.5L562,99.1L563,99.1C563.9,99.1 564,99.1 564.1,99.3C564.3,100.1 564.8,100.4 565.5,100.5C566.5,100.6 567.2,100.2 567.2,99.5C567.2,98.9 566.9,98.7 565.2,98.3C563.6,97.9 562.8,97.5 562.5,97C562.3,96.7 562.3,96.5 562.3,95.9C562.3,95.1 562.5,94.5 563.2,94.1C563.8,93.6 564.5,93.5 565.8,93.5C567.1,93.5 567.7,93.7 568.4,94.2C568.8,94.5 569.2,95.2 569.4,95.8L569.5,96.1L568.4,96.1C567.5,96.1 567.3,96.1 567.3,96C567.3,95.4 566.6,95 565.8,95C564.9,95 564.5,95.4 564.6,96C564.7,96.3 565,96.5 566.6,96.9C568.6,97.4 569.3,97.8 569.6,98.6C569.8,99.1 569.7,100 569.4,100.5C569.1,101.1 568.4,101.6 567.7,101.8C566.9,101.9 565.6,102 564.8,101.9ZM587.6,101.9C586.9,101.8 586,101.3 585.6,100.8C583.7,98.8 584.2,95 586.6,93.8C587.6,93.3 589,93.2 590.1,93.6C591.5,94.1 592.5,95.8 592.5,97.6L592.5,98.2L586.7,98.2L586.8,98.6C586.9,99.6 587.5,100.1 588.5,100.2C589,100.2 589.1,100.2 589.6,100C589.9,99.8 590.2,99.6 590.3,99.5C590.5,99.2 590.5,99.2 591.4,99.2C592.5,99.2 592.5,99.2 592,100C591.2,101.5 589.4,102.2 587.6,101.9ZM590.2,96.7C590.2,96.2 589.7,95.4 589.2,95.2C588.5,94.9 587.5,95.1 587.1,95.6C586.9,95.8 586.6,96.4 586.6,96.7C586.6,96.9 586.6,96.9 588.4,96.9C589.9,96.9 590.2,96.8 590.2,96.7ZM605.7,101.9C605,101.8 604.1,101.3 603.6,100.8C602.3,99.5 602,97.1 603,95.3C604.4,92.6 609,92.8 610.3,95.5C610.9,96.8 610.9,98.5 610.3,99.8C609.6,101.4 607.7,102.2 605.7,101.9ZM607.6,100C607.8,99.9 608,99.6 608.2,99.2C608.4,98.7 608.5,98.5 608.5,97.8C608.5,96.8 608.4,96.2 607.9,95.7C607.5,95.2 607.1,95 606.5,95C605.7,95 605.2,95.3 604.8,96.1C604.6,96.4 604.6,96.6 604.6,97.6C604.6,98.6 604.6,98.8 604.8,99.1C605,99.6 605.5,100 605.8,100.1C606.4,100.4 607.3,100.3 607.6,100ZM619.5,101.9C618.8,101.8 618.1,101.5 617.7,101.2C617.3,100.9 616.9,100.1 616.8,99.6L616.7,99.2L618.7,99.2L618.8,99.6C619,100.3 619.8,100.7 620.8,100.6C621.6,100.5 622.1,99.8 621.8,99.2C621.7,98.9 621.1,98.7 619.8,98.4C618,98 617.5,97.7 617.1,97C616.9,96.6 616.9,95.9 617,95.3C617.1,94.9 617.7,94.3 618.1,94C619.2,93.4 621.4,93.4 622.5,94C623.2,94.3 623.8,95.3 623.8,95.9L623.8,96L621.8,96L621.7,95.7C621.6,95.2 621,94.9 620.2,94.9C619.3,94.9 618.8,95.3 619,95.9C619.1,96.3 619.5,96.4 621,96.8C622.7,97.2 623.3,97.5 623.7,98.1C623.9,98.5 624,98.6 624,99.2C624,100 623.8,100.4 623.4,100.9C622.8,101.8 621.1,102.2 619.5,101.9ZM573.9,101.7C573.9,101.7 573.8,99.1 573.8,96L573.8,90.4L576.5,90.4C579.5,90.4 580,90.5 581.1,91C582.2,91.5 583.1,92.7 583.5,94.2C583.7,95 583.7,97 583.5,97.9C583,99.7 581.9,101 580.2,101.5C579.8,101.6 579.2,101.7 576.8,101.7C575.2,101.8 573.9,101.8 573.9,101.7ZM579.7,99.4C580.8,98.8 581.4,97.4 581.1,95.5C581,94.4 580.6,93.6 579.9,93.2C579.3,92.8 578.8,92.7 577.4,92.7L576.1,92.7L576.1,99.7L577.7,99.7C579.2,99.6 579.4,99.6 579.7,99.4ZM613.7,101.7C613.3,101.6 612.9,101.3 612.7,100.9C612.5,100.6 612.5,100.4 612.5,97.8L612.5,95L611.2,95L611.2,93.5L612.5,93.5L612.5,91.1L614.7,91.1L614.7,93.5L616.3,93.5L616.3,95L614.7,95L614.7,97.3C614.7,100.1 614.7,100 615.7,100L616.3,100L616.3,101.7L615.2,101.7C614.5,101.8 613.8,101.8 613.7,101.7ZM603.9,92.6C603.9,92.6 604.3,92.1 604.7,91.5L605.5,90.4L607.6,90.4L608.4,91.4C608.8,92 609.2,92.5 609.2,92.5C609.2,92.6 609.1,92.6 608.4,92.6L607.5,92.6L607,92C606.7,91.7 606.5,91.4 606.5,91.4C606.5,91.4 606.2,91.7 606,92.1L605.5,92.8L604.7,92.8C604.3,92.7 603.9,92.6 603.9,92.6ZM587.3,92.1C587.3,92.1 587.7,91.4 588.1,90.7L588.9,89.4L591.3,89.4L591,89.7L589.7,91.1L588.7,92.2L588,92.2C587.7,92.2 587.3,92.2 587.3,92.1ZM549,86.7C546.8,86.4 545.1,84.9 544.5,82.6C544.3,81.8 544.3,80.1 544.5,79.2C545,77.2 546.5,75.6 548.3,75.2C549.1,75 550.5,75 551.2,75.2C552.9,75.6 554.3,77.1 554.5,78.6L554.6,79L552.3,79L552.2,78.6C551.7,77 549.4,76.5 548,77.6C547.6,78 547.1,78.8 547,79.6C546.8,80.4 546.9,82.1 547.2,82.7C547.5,83.4 548.1,84.1 548.7,84.3C549.3,84.6 550.4,84.6 551,84.4C551.7,84.1 552.2,83.4 552.4,82.6L552.5,82.2L554.9,82.2L554.9,82.4C554.9,83.3 554.3,84.6 553.5,85.4C552.2,86.4 550.7,86.9 549,86.7ZM557.2,86.6C555.9,86.2 555.4,85.4 555.5,84.1C555.5,83.6 555.6,83.4 555.8,83C556.3,82.2 557,81.9 559.3,81.6C560.4,81.5 560.7,81.3 560.8,80.6C560.8,80.2 560.8,80.1 560.6,79.9C560.4,79.7 560.2,79.6 559.9,79.6C559,79.5 558.3,79.8 558.1,80.4L558,80.7L555.8,80.7L555.9,80.3C556,79.8 556.2,79.4 556.7,79C557.4,78.4 558.3,78.1 559.8,78.1C561,78.1 561.9,78.3 562.5,78.8C563.2,79.4 563.2,79.3 563.2,82.9C563.2,84.6 563.3,86.2 563.3,86.3C563.4,86.5 563.4,86.5 562.3,86.5L561.2,86.5L561.1,86.2C561,85.7 561,85.7 560.7,85.9C560,86.6 558.2,86.9 557.2,86.6ZM560.2,84.9C560.7,84.6 560.9,84.1 560.9,83.2L560.9,82.5C560.9,82.5 560.7,82.6 560.6,82.6C560.5,82.6 560,82.8 559.6,82.8C558.6,83 558.2,83.2 558,83.6C557.8,84.1 557.9,84.6 558.3,84.9C558.6,85.3 559.7,85.2 560.2,84.9ZM570.3,86.6C570,86.5 569.7,86.4 569.4,86.3C568.6,86 567.8,84.9 567.8,84.2L567.8,83.9L569.8,83.9L569.9,84.1C570.1,84.8 570.7,85.2 571.5,85.2C572.1,85.2 572.5,85 572.8,84.7C573.2,84.2 572.9,83.6 572,83.4C571.5,83.2 571,83.1 570.4,83C569.2,82.7 568.9,82.6 568.5,82.2C568,81.8 567.9,81.5 567.9,80.8C567.9,79.6 568.5,78.9 569.7,78.5C570.5,78.2 572,78.2 572.8,78.5C573.9,78.8 574.7,79.6 574.8,80.5L574.9,80.9L572.9,80.9L572.8,80.5C572.6,80 572.2,79.8 571.4,79.8C570.6,79.8 570.3,80 570.2,80.4C570.1,80.7 570.4,81.1 570.7,81.3C570.8,81.4 571.5,81.6 572.3,81.7C574.1,82.1 574.8,82.5 575.1,83.3C575.3,83.7 575.2,84.7 575.1,85.1C574.9,85.5 574.4,86.1 574,86.3C573.2,86.7 571.5,86.8 570.3,86.6ZM578.7,86.6C577.3,86.3 576.4,85.4 576.2,84.3L576.2,84L577.3,84C578.3,84 578.4,84 578.4,84.2C578.4,84.5 578.8,85 579.1,85.1C579.4,85.2 579.7,85.3 580,85.3C580.9,85.3 581.5,84.9 581.5,84.3C581.5,83.7 581.3,83.6 579.2,83C577.6,82.6 577.1,82.3 576.7,81.8C576.5,81.5 576.5,81.3 576.5,80.7C576.5,79.3 577.4,78.4 579.2,78.2C581.5,77.9 583.2,78.8 583.5,80.4L583.6,80.7L581.5,80.7L581.4,80.4C581.3,80 581,79.8 580.5,79.6C579.4,79.4 578.5,79.8 578.8,80.6C578.9,80.9 579.5,81.1 580.8,81.4C581.6,81.6 582.3,81.8 582.5,81.9C583.4,82.4 583.8,82.9 583.8,83.9C583.8,85.1 583.1,86 582,86.3C581.1,86.6 579.5,86.7 578.7,86.6ZM587.5,86.6C586.1,86.3 585.1,85.2 584.7,83.8C584.5,83.1 584.5,81.7 584.7,81.1C585.2,79.5 586.4,78.5 588,78.2C590.2,77.8 592,79.2 592.5,81.6C592.6,82 592.6,82.5 592.6,82.7L592.6,83L586.7,83L586.8,83.4C587,84.5 587.6,85.1 588.8,85.1C589.4,85.1 589.9,84.9 590.3,84.4L590.6,84.1L592.4,84.1L592.1,84.8C591.8,85.5 591.2,86.1 590.6,86.4C589.8,86.7 588.4,86.8 587.5,86.6ZM590.2,81.3C589.9,80.1 589,79.6 587.9,79.9C587.3,80.1 586.9,80.6 586.7,81.3L586.6,81.6L590.2,81.6L590.2,81.3ZM564.6,86.5L564.6,78.4L566.7,78.4L566.7,86.5L564.6,86.5ZM564.6,77.2L564.6,75.3L566.7,75.3L566.7,77.2L564.6,77.2ZM610.3,75.7C607.1,75.3 604,74.4 601.1,73C594.1,69.7 588.9,63.8 586.3,56.5C584.5,51.5 584.2,45.7 585.4,40.3C586.5,35.5 588.9,31.1 592.2,27.4L592.9,26.6L596,26.6L594.8,27.8C590,32.6 587.3,38.7 586.9,45.4C586.5,52.9 589.2,60.1 594.4,65.4C598.8,69.9 604.1,72.6 610.4,73.4C612.1,73.6 615.5,73.6 617.1,73.4C622.2,72.7 626.8,70.7 630.6,67.6L631.3,67L631.3,70L630.6,70.5C629,71.7 626.1,73.3 624,74C621.8,74.8 619.3,75.4 616.9,75.7C615.2,75.9 611.9,75.9 610.3,75.7ZM611.7,72.1C610.9,71.8 610.7,71.2 611.4,70.7C611.6,70.5 611.6,70.5 611.5,70.3C611.3,70 611.3,69.5 611.5,69.3C612,68.9 612.8,69 613,69.5C613.2,69.8 613,70.3 612.8,70.4C612.6,70.5 612.6,70.5 612.9,70.8C613,71 613.1,71.2 613.1,71.2C613,71.8 612.3,72.3 611.7,72.1ZM612.3,71.7C612.6,71.5 612.6,71.2 612.2,70.9C611.9,70.6 611.8,70.6 611.5,71C611.1,71.5 611.7,72.1 612.3,71.7ZM612.5,70.2C612.6,70.1 612.6,69.9 612.6,69.8C612.6,69.6 612.3,69.3 612.1,69.3C611.9,69.3 611.6,69.6 611.6,69.8C611.6,69.9 612.1,70.5 612.2,70.5C612.3,70.4 612.4,70.3 612.5,70.2ZM613.5,72.1C613.5,72 613.6,72 613.7,71.9C613.9,71.8 613.9,71.8 613.9,71.1C613.9,70.3 613.9,70.3 613.7,70.2C613.4,70.1 613.5,69.9 614,69.9L614.3,69.9L614.3,70.9C614.3,71.8 614.3,71.9 614.5,71.9C614.6,71.9 614.7,72 614.7,72.1C614.7,72.2 614.6,72.2 614.1,72.2C613.8,72.1 613.5,72.1 613.5,72.1ZM615.8,71.8C615.1,71.2 615.2,69.9 615.9,69.3C616.2,69 616.8,68.8 617,68.9C617.1,69 617,69 616.7,69.2C616.3,69.4 616,69.8 615.8,70.3L615.7,70.5L616,70.3C616.4,70 616.8,70 617.1,70.4C617.6,70.8 617.4,71.8 616.9,72.1C616.5,72.1 616.1,72.1 615.8,71.8ZM616.8,71.6C617,71.4 617,71 616.9,70.7C616.7,70.3 616.3,70.2 616,70.5C615.8,70.6 615.8,70.7 615.9,71C615.9,71.7 616.4,72 616.8,71.6ZM609.8,71.8L609.4,71.7C609.1,71.6 609.1,71.5 609.4,71.5C609.6,71.5 609.7,71.4 609.8,70.6C609.9,70 609.9,69.9 609.8,69.8C609.5,69.6 609.6,69.5 610,69.5C610.3,69.5 610.4,69.5 610.4,69.8C610.4,69.9 610.3,70.4 610.3,70.8C610.3,71.2 610.2,71.5 610.2,71.6C610.2,71.6 610.3,71.7 610.4,71.7C610.5,71.7 610.6,71.8 610.6,71.9C610.4,71.9 610.1,71.9 609.8,71.8ZM619.5,70.5C619.3,70.3 619.3,70.1 619.5,69.9C619.7,69.7 619.9,69.7 620.1,69.9C620.3,70.1 620.3,70.3 620.1,70.5C619.8,70.7 619.7,70.7 619.5,70.5ZM623,70.3C622.9,70.2 622.9,69.7 623,69.7C623,69.7 623.1,69.8 623.2,69.8C623.4,70 623.6,70 623.9,69.7C624.1,69.5 624.1,69.5 624.1,69.2C624.1,68.9 623.9,69 623.3,68.9C622.7,68.9 622.6,68.8 622.3,68.6C621.9,68.2 622,67.8 622.3,67.4C622.6,67.1 623.2,66.9 623.5,67C623.7,67 623.8,67.5 623.8,67.7C623.7,67.9 623.7,67.9 623.5,67.6C623.3,67.4 623.2,67.3 623,67.4C622.4,67.5 622.2,68 622.6,68.3C622.7,68.4 622.9,68.5 623.4,68.5C624,68.5 624.1,68.5 624.3,68.7C624.8,69.2 624.5,69.8 623.6,70.1C623.2,70.3 623,70.3 623,70.3ZM603.1,69.7C602.3,69.3 602,69 602.4,69.1C602.6,69.1 602.7,68.9 603.1,68.1C603.5,67.2 603.6,67 603.5,66.8C603.4,66.7 603.4,66.6 603.4,66.5C603.5,66.4 605.4,67.4 605.4,67.4C605.4,67.5 605.1,67.9 605,67.9C605,67.9 604.9,67.8 604.9,67.7C604.9,67.5 604.8,67.4 604.5,67.3C604.4,67.2 604.2,67.2 604.1,67.1C604,67.1 603.7,67.9 603.7,67.9C603.7,67.9 603.9,68.1 604.1,68.1C604.8,68.4 604.5,68.6 603.8,68.3C603.5,68.2 603.5,68.2 603.3,68.4C602.9,69.1 602.9,69.1 603.4,69.3C603.8,69.5 603.8,69.5 604,69.3C604.2,69.1 604.3,69.1 604.3,69.3C604.3,69.5 604.1,69.9 604,69.9C604,70.2 603.6,70 603.1,69.7ZM606.8,70.1C606.6,70 606.5,69.9 606.5,69.8C606.5,69.6 606.5,69.6 607.1,69.7C607.4,69.8 607.5,69.9 607.5,70C607.5,70.2 607.2,70.2 606.8,70.1ZM625.4,69.2C625.4,69.2 625.4,69.1 625.5,69C625.6,68.9 625.5,68.7 625,67.8C624,66.2 624.1,66.1 625.8,66.9C626.5,67.2 627,67.4 627,67.4C627,67.4 626.8,67 626.6,66.6C626.2,65.9 626.1,65.9 625.9,65.9C625.5,65.9 625.6,65.7 626.1,65.4C626.4,65.2 626.6,65.2 626.6,65.3C626.6,65.4 626.6,65.5 626.5,65.5C626.3,65.7 627.6,67.7 627.8,67.6C628.1,67.5 628.1,67.7 627.8,67.9L627.5,68.1L626.2,67.5C625.5,67.2 624.9,66.9 624.9,67C624.9,67.1 625.1,67.4 625.4,67.9C625.9,68.7 625.9,68.7 626.2,68.7C626.6,68.6 626.5,68.8 626,69.1C625.6,69.2 625.4,69.3 625.4,69.2ZM600.1,68.1C599.4,67.6 599.4,67.1 600.1,66C600.5,65.3 600.6,65.2 600.5,65.1C600.3,64.8 600.5,64.8 601,65.1C601.5,65.4 601.6,65.7 601.2,65.5C601,65.4 600.9,65.5 600.5,66.2C600.2,66.6 600,67 600,67.1C599.9,67.4 600.2,67.8 600.6,67.9C601,68.1 601.3,67.9 601.9,67C602.3,66.3 602.4,66.2 602.3,66.1C602.2,66 602.1,65.7 602.2,65.7C602.3,65.7 603.2,66.3 603.2,66.4C603.2,66.4 603.1,66.5 603,66.4C602.8,66.4 602.7,66.4 602.3,67.1C601.4,68.4 600.8,68.6 600.1,68.1ZM597.7,67.3C597.4,67 597.3,66.8 597.2,66.4C597.1,66.1 597,65.7 596.9,65.5C596.3,64.7 596.6,63.7 597.6,63.2C598.8,62.6 600.2,63.9 599.6,65.1C599.4,65.4 598.9,65.9 598.6,66L598,66C597.7,66 597.6,66 597.6,66.1C597.6,66.3 598,66.9 598.3,67.2C598.5,67.4 598.6,67.5 598.6,67.5C598.3,67.8 598,67.6 597.7,67.3ZM598.3,65.7C598.7,65.5 599.1,64.9 599.2,64.6C599.3,64.3 599.1,63.8 598.8,63.6C598.3,63.3 597.6,63.6 597.2,64.2C596.8,64.7 596.9,65.2 597.2,65.6C597.6,65.8 597.9,65.9 598.3,65.7ZM628.2,66.4C627,65.6 627.4,63.8 628.8,63.6C629.3,63.5 629.8,63.8 630.2,64.3C630.6,64.8 630.6,65.3 630.4,65.9C629.9,66.7 629,66.9 628.2,66.4ZM629.7,66.1C630.3,65.8 630.3,64.9 629.6,64.3C629.3,64 629.1,63.9 628.9,63.9C628.5,63.9 628.1,64.3 628,64.6C627.9,65.2 628.7,66.2 629.2,66.2C629.3,66.3 629.5,66.2 629.7,66.1ZM613.1,65.2C613.6,64.2 613.6,64.2 614,65C614.2,65.4 614.4,65.7 614.4,65.7C614.4,65.7 614.2,65.7 614,65.6C613.7,65.5 613.5,65.5 613,65.7C612.8,65.7 612.8,65.7 613.1,65.2ZM612.2,65L612.2,63.8C612.2,63.6 612.1,63.4 612.2,63.4C612.4,63.5 612.7,63.6 612.9,63.8C613.6,64.2 613.6,64.2 612.7,64.7L612.2,65ZM615,65L613.8,64.2C613.8,64.1 614.6,63.7 615,63.5L615,65ZM595.1,63.7C594.9,63.5 594.7,63.3 594.7,63.2C594.7,63.1 594.8,63.2 595,63.2C595.3,63.3 595.4,63.2 596.1,62.5C596.8,61.8 596.9,61.7 596.9,61.5C596.8,61.2 597,61.2 597.4,61.7C597.7,62.1 597.8,62.3 597.5,62.2C597.4,62.1 597.2,62.2 596.5,62.9C595.8,63.5 595.7,63.7 595.7,63.9L595.7,64.2C595.5,64.1 595.3,63.9 595.1,63.7ZM613.4,63.8L613,63.1L612.8,62.7L614.4,62.7L613.6,64C613.6,64 613.5,63.9 613.4,63.8ZM609.2,63.6C609.4,63.3 609.6,63.1 609.8,62.9C610.2,62.6 610.2,62.6 610,62.5C609.8,62.4 609.5,61.9 609.5,61.7C609.5,61.5 609.3,61.4 609.2,61.6C609.2,61.6 609,61.7 608.8,61.8C608.4,61.9 607.9,61.8 607.6,61.5C607.4,61.3 607.4,61.2 607.8,61.2C608,61.2 608,61.1 608,61C608,60.9 607.9,60.7 607.8,60.5C607.7,60 607.8,59.9 608.2,60.1C608.6,60.2 608.9,60.6 609,61.1C609.1,61.4 609.1,61.5 609.2,61.3C609.5,60.8 609.2,60 608.6,59.6C608.2,59.4 607.5,59.4 607.1,59.7C606.7,59.9 606.7,59.8 607,59.4C607.7,58.6 608.6,58.6 610.5,59.3C611.1,59.5 611.8,59.7 612.1,59.8C612.4,59.9 612.6,60 612.6,60C612.5,60.3 611.3,61.2 610.8,61.2L610.5,61.3L610.9,60.7L610.5,60.5C610.3,60.4 610.2,60.3 610,60.3C609.9,60.3 609.9,60.6 610,61.1C610,62.1 610.2,62.4 610.9,62.4C611.3,62.4 611.3,62.4 611.4,62.7C611.5,63.4 610.9,63.8 609.8,63.9L609.2,64L609.2,63.6ZM617.1,63.8C616.2,63.6 615.9,63.2 616.1,62.6C616.2,62.3 616.2,62.3 616.4,62.3C617.1,62.4 617.4,62 617.4,60.9C617.4,60.2 617.4,60.1 616.8,60.5L616.4,60.7L616.6,60.9C616.7,61 616.8,61.2 616.8,61.2C616.8,61.2 616.6,61.2 616.4,61.1C616.2,61 615.7,60.7 615.3,60.4C614.6,59.8 614.6,59.8 614.8,59.8C615.4,59.7 616.3,59.4 617.2,59.1C618.8,58.5 619.9,58.6 620.4,59.5C620.7,59.9 620.6,60 620.3,59.7C619.4,59.1 618.2,59.5 618,60.5C617.9,60.8 618.1,61.3 618.2,61.3C618.3,61.3 618.2,60.9 618.2,60.7C618.3,60.3 618.7,60 619.1,59.9C619.4,59.8 619.4,59.9 619.4,60.2C619.4,60.4 619.3,60.6 619.3,60.8C619.1,61.1 619.2,61.2 619.5,61.2C619.9,61.2 619.8,61.4 619.3,61.6C618.8,61.8 618.4,61.8 618,61.5L617.8,61.3L617.7,61.7C617.7,61.9 617.5,62.2 617.3,62.3L617,62.5L617.3,62.7C617.7,63 617.9,63.2 618.1,63.6C618.2,63.8 618.2,63.9 617.9,63.8C617.6,63.9 617.3,63.9 617.1,63.8ZM630.8,63.5C630.3,62.9 629.8,62.6 629.7,62.7C629.6,62.8 629.4,62.8 629.4,62.7C629.4,62.6 629.6,62.4 629.8,62.2L630.2,61.8L630.2,62.1C630.2,62.3 630.2,62.4 630.6,62.9C631,63.3 631.1,63.4 631,63.6L631,63.8L630.8,63.5ZM608,62.8C607.7,62.7 607.7,62.6 607.9,62.4C608.2,62.1 608.8,62.1 609.1,62.3L609.3,62.5L609,62.7C608.7,62.9 608.4,63 608,62.8ZM618.2,62.8C617.9,62.6 617.8,62.5 618.1,62.3C618.4,62.1 618.9,62.2 619.2,62.4C619.5,62.6 619.5,62.7 619.2,62.9C618.8,63 618.6,62.9 618.2,62.8ZM593.6,61.9C593.1,61.3 593,61 593.1,61C593.2,61 593.3,61 593.3,61.1C593.4,61.2 593.7,61 594.3,60.5C595.1,59.9 595.2,59.8 595.2,59.6C595.2,59.3 595.3,59.3 595.7,59.8C596,60.3 596,60.5 595.7,60.3C595.5,60.2 595.4,60.3 594.6,60.9L593.6,61.6C593.6,61.6 593.7,61.8 593.9,62C594.2,62.3 594.2,62.4 594.5,62.3L594.8,62.3C594.8,62.4 594.4,62.8 594.3,62.8C594.2,62.7 593.9,62.3 593.6,61.9ZM613.3,62C613.2,61.9 613.1,61.8 613,61.9C612.8,61.9 612.6,61.6 612.7,61.5C612.7,61.5 612.7,61.4 612.6,61.4C612.3,61.3 612.4,60.9 612.9,60.5C613.2,60.3 613.5,60.1 613.5,60.1C613.7,60.1 614.7,61 614.7,61.2C614.7,61.3 614.6,61.4 614.5,61.4C614.4,61.5 614.3,61.6 614.3,61.7C614.3,61.9 614.1,62.1 613.9,62C613.8,62 613.7,62 613.7,62.1C613.7,62.2 613.5,62.2 613.3,62ZM606,61.2C605.8,61.1 605.8,60.9 606.1,60.7C606.4,60.5 606.9,60.4 607.1,60.5C607.3,60.6 607,61 606.6,61.2C606.4,61.2 606.2,61.3 606.2,61.3L606,61.2ZM620.7,61.2C620.5,61.1 620.2,61 620.1,60.8C620,60.6 620,60.6 620.1,60.5C620.3,60.4 620.7,60.4 621,60.6C621.2,60.7 621.5,61.1 621.5,61.1C621.4,61.2 620.8,61.2 620.7,61.2ZM631,61.1C631,61.1 631,61 631.1,60.9C631.2,60.8 631.2,60.8 631.2,61C631.2,61.1 631.1,61.1 631,61.1ZM592.3,59.8C592,59.6 591.3,58.3 591.4,58.2C591.4,58.2 591.5,58.2 591.6,58.3C591.8,58.4 591.8,58.4 592.8,57.9C593.8,57.4 593.8,57.3 593.8,57C593.8,56.7 593.8,56.7 593.9,56.9C594,57 594.2,57.4 594.4,57.7C594.7,58.2 594.7,58.4 594.7,58.6C594.6,58.9 594.2,59.2 593.8,59.1C593.6,59.1 593.6,59.1 593.6,59.3C593.7,59.9 592.8,60.2 592.3,59.8ZM593.1,59.5C593.3,59.4 593.3,59 593.1,58.7C592.9,58.4 592.9,58.4 592.3,58.7C591.9,58.9 591.9,59 592,59.1C592.4,59.5 592.7,59.7 593.1,59.5ZM594.3,58.5C594.4,58.3 594.4,58.3 594.3,58C594.2,57.8 594.1,57.7 594.1,57.7C594,57.7 593.3,58 593.2,58.1C593.2,58.1 593.3,58.3 593.4,58.5C593.8,58.8 594,58.8 594.3,58.5ZM604.1,59.9C603.9,59.8 604.1,59.4 604.7,58.8C604.9,58.5 605.1,58.3 605.1,58.3L604.8,58.1C604.4,57.9 604.1,57.5 604.2,57.4C604.3,57.2 605.2,57.3 605.6,57.5C605.8,57.6 605.9,57.7 606,57.9C606.1,58.1 606.3,58.2 606.5,58.3C606.8,58.5 606.9,58.5 606.8,58.7C606.6,59 606,59.6 605.5,59.7C605.1,60 604.3,60.1 604.1,59.9ZM621.9,59.9C621.4,59.7 620.8,59.3 620.6,58.9C620.4,58.6 620.4,58.5 620.8,58.3C621,58.2 621.2,58.1 621.2,58C621.3,57.8 621.4,57.7 621.5,57.6C621.8,57.4 622.8,57.3 622.9,57.4C623,57.6 622.7,58 622.3,58.2C622.1,58.3 622,58.4 622,58.4C622,58.4 622.1,58.6 622.3,58.8C622.8,59.3 623.2,60 623.1,60.1C622.9,60.1 622.4,60 621.9,59.9ZM612.7,59C609.2,58.4 606.4,55.1 605.5,50.4C605.3,49.2 605.3,46.6 605.5,45.5C606,42.8 607.3,40.2 608.9,38.8C609.6,38.2 610.6,37.5 611.3,37.3C612.1,37 613.2,36.8 614,36.9C614.9,37 615.4,37.1 616.2,37.5C618.8,38.7 620.8,41.5 621.5,45.1C621.8,46.4 621.8,49.5 621.5,50.8C620.7,55 618.2,58.2 615,59C614.4,59 613.4,59.1 612.7,59ZM615.2,58C618.3,57.1 620.6,53.5 621,49.1C621.5,43.7 618.8,38.7 615,37.6C614,37.4 613,37.4 612,37.6C608.5,38.6 606.1,42.8 606.1,47.8C606.1,51.3 607.2,54.2 609.2,56.2C610.3,57.3 611.4,57.9 612.7,58.1C613.5,58.4 614.5,58.3 615.2,58ZM612.7,57.5C611.5,57.2 611.6,57.2 613.6,57.2C615.7,57.2 615.8,57.3 614.6,57.5C613.8,57.6 613.4,57.6 612.7,57.5ZM610.2,56.2L609.9,56L617.1,56L616.7,56.4L610.4,56.4L610.2,56.2ZM609.2,55.2C609.1,55.1 609,55 609,55C609,55 609.8,54.9 610.7,54.9L612.4,54.9L612.2,55.3L610.7,55.3C609.5,55.4 609.3,55.3 609.2,55.2ZM613,55C613.3,54.3 613.1,53.7 612.6,53.4C612.3,53.2 611.8,53.3 611.5,53.6C611.3,53.9 611.2,53.8 611.2,53.5C611.2,52.8 611.6,52.4 612.3,52.4C612.6,52.4 612.7,52.5 612.9,52.7C613.2,53.1 613.3,53 613,52.5C612.5,51.6 612.7,50.6 613.3,49.8L613.6,49.4L613.8,49.6C614.1,50 614.5,50.8 614.5,51.3C614.5,51.6 614.4,51.9 614.3,52.3C614,52.9 614.1,53.1 614.4,52.7C614.6,52.4 614.7,52.4 615,52.4C615.5,52.4 615.8,52.6 616,53.1C616.1,53.3 616.1,53.5 616,53.7L615.9,53.9L615.7,53.7C615,53 613.8,53.7 614.1,54.7C614.1,54.9 614.2,55.2 614.3,55.2C614.4,55.4 614.3,55.4 613.7,55.4L613,55.4L613,55ZM614,51.3C614,50.9 613.7,50 613.6,50L613.6,52.6L613.8,52.2C614,51.9 614,51.6 614,51.3ZM614.9,55.2C614.6,54.9 614.7,54.9 616.5,54.9L618.2,54.9L618,55.1C617.8,55.3 617.8,55.3 616.4,55.3C615.4,55.4 614.9,55.3 614.9,55.2ZM608.4,54.1C608.4,54 608.3,53.9 608.3,53.9L609.5,53.9C610.6,53.9 610.7,53.9 610.8,54.1L610.9,54.3L609.8,54.3C608.7,54.2 608.5,54.2 608.4,54.1ZM611.8,54.2C611.8,54.1 612,53.9 612.2,53.9C612.3,53.9 612.4,54 612.5,54.1C612.7,54.3 612.7,54.3 612.2,54.3C612,54.2 611.8,54.2 611.8,54.2ZM614.7,54.2C614.7,54.1 614.9,53.9 615.1,53.9C615.2,53.9 615.3,54 615.4,54.1C615.6,54.3 615.6,54.3 615.1,54.3C614.8,54.2 614.7,54.2 614.7,54.2ZM616.4,54.2C616.4,53.9 616.5,53.8 617.7,53.8C618.9,53.8 619,53.9 618.7,54.1C618.6,54.3 616.4,54.3 616.4,54.2ZM607.9,53.1C607.9,53.1 607.8,53 607.8,52.9C607.8,52.7 607.9,52.7 609.3,52.7C610.1,52.7 610.8,52.7 610.8,52.8C610.8,53.2 610.7,53.2 609.4,53.2C608.6,53.1 607.9,53.1 607.9,53.1ZM616.5,53C616.5,53 616.5,52.8 616.4,52.8C616.4,52.7 616.5,52.6 617.9,52.6C619.2,52.6 619.4,52.6 619.4,52.8C619.4,52.9 619.3,53 619.3,53C619.3,53 618.7,53.1 617.9,53.1C617.1,53.1 616.5,53.1 616.5,53ZM607.5,51.9C607.5,51.9 607.5,51.7 607.4,51.7C607.4,51.6 607.6,51.5 609.7,51.5C611.6,51.5 612.1,51.5 612.1,51.6C612.1,51.8 611.3,51.9 609.3,51.9C608.3,52 607.5,52 607.5,51.9ZM615.6,51.9C615.5,51.8 615.4,51.8 615.2,51.8C615,51.8 615,51.8 615,51.7C615,51.6 615.6,51.6 617.4,51.6L619.7,51.6L619.7,51.8C619.7,52 619.7,52 617.7,52C616.5,52 615.7,52 615.6,51.9ZM607.2,50.7C607.2,50.6 607.2,50.5 607.1,50.5C607.1,50.5 608.2,50.4 609.7,50.4L612.3,50.4L612.3,50.9L609.8,50.9C607.5,50.9 607.2,50.9 607.2,50.7ZM615,50.7C615,50.6 614.9,50.5 614.9,50.5C614.9,50.5 616,50.4 617.5,50.4L620.1,50.4L620.1,50.8L617.6,50.8C615.3,50.9 615,50.9 615,50.7ZM607,49.6L607,49.4C607.1,49.3 612.9,49.3 612.9,49.4C612.9,49.4 612.8,49.6 612.7,49.6C612.5,49.7 612.2,49.8 609.8,49.8C607.1,49.8 607,49.8 607,49.6ZM614.5,49.6C614.2,49.2 614.2,49.3 617.3,49.3L620.3,49.3L620.3,49.8L617.5,49.8C615.3,49.8 614.6,49.7 614.5,49.6ZM606.9,48.6L606.9,48.2L620.3,48.2L620.3,48.6L606.9,48.6ZM606.9,47.3C606.9,47.1 607,47.1 608.1,47.1C609.3,47.1 609.3,47.1 609.2,47.3C609.1,47.5 609,47.5 608,47.5C607,47.5 606.9,47.5 606.9,47.3ZM609.8,47.4C609.8,47.3 609.9,47.1 609.9,46.8C610,46.1 609.6,45.5 608.9,45.5C608.6,45.5 608.1,45.7 608.1,45.9C608.1,45.9 608.1,46 608,46C608,46 607.9,45.8 607.9,45.6C607.9,45.2 607.9,45.1 608.2,44.8C608.7,44.3 609.1,44.4 609.5,44.8C609.9,45.2 609.9,45.2 609.6,44.4C609.4,43.9 609.4,43.7 609.4,43.3C609.4,42.8 609.8,42 610.1,41.7C610.3,41.6 610.3,41.6 610.5,41.9C610.9,42.3 611.2,43.2 611.2,43.7C611.2,43.9 611,44.3 610.9,44.6C610.8,44.9 610.7,45.2 610.7,45.2C610.7,45.2 610.8,45.2 610.9,45.1C611.2,44.6 611.7,44.4 612.2,44.7C612.6,44.9 612.9,45.6 612.7,45.9C612.6,46 612.6,46 612.5,45.9C612.4,45.8 612.2,45.7 612.1,45.6C611.8,45.5 611.8,45.5 611.4,45.6C611.2,45.7 611,45.9 610.9,46.1C610.7,46.4 610.7,46.5 610.9,47L611,47.5L610.3,47.5C609.9,47.5 609.8,47.5 609.8,47.4ZM610.9,43.5C610.9,43.2 610.8,42.8 610.7,42.6L610.5,42.2L610.5,44.9L610.7,44.5C610.8,44.2 610.9,43.8 610.9,43.5ZM611.6,47.4C611.6,47.3 611.6,47.3 611.5,47.2L613.5,47.2C615.5,47.2 615.5,47.2 615.5,47.4C615.4,47.6 615.3,47.6 613.5,47.6C611.9,47.5 611.7,47.5 611.6,47.4ZM616.2,47.4C616.3,47.1 616.4,46.4 616.2,46.2C616,45.8 615.7,45.6 615.3,45.6C615,45.6 614.5,45.8 614.5,46C614.5,46 614.5,46.1 614.4,46.1C614.4,46.1 614.3,45.9 614.3,45.7C614.3,45.3 614.3,45.2 614.6,44.9C615.1,44.4 615.5,44.5 615.9,44.9C616.3,45.3 616.3,45.3 616,44.5C615.6,43.6 615.8,42.9 616.4,42L616.6,41.7L616.9,41.9C617,42 617.3,42.4 617.4,42.6C617.7,43.3 617.7,43.9 617.4,44.6C617.3,44.9 617.2,45.2 617.2,45.2C617.2,45.2 617.3,45.2 617.4,45.1C617.7,44.6 618.2,44.4 618.7,44.7C619.1,44.9 619.4,45.6 619.2,45.9C619.1,46 619.1,46 619,45.9C618.9,45.8 618.7,45.7 618.6,45.6C618.3,45.5 618.3,45.5 617.9,45.6C617.7,45.7 617.5,45.9 617.4,46.1C617.2,46.4 617.2,46.5 617.4,47L617.5,47.5L616.8,47.5C616.2,47.5 616.1,47.5 616.2,47.4ZM617.2,43.5C617.2,43.2 617.1,42.9 617,42.6L616.8,42.2L616.8,44.8L617,44.4C617.2,44.2 617.2,43.8 617.2,43.5ZM618,47.4C618,47.3 618,47.3 617.9,47.2L619.1,47.2C620.3,47.2 620.3,47.2 620.3,47.4C620.3,47.6 620.2,47.6 619.1,47.6C618.2,47.5 618,47.5 618,47.4ZM607,46.2C607,46.1 607.1,46 607.3,46C607.5,46 607.6,46.1 607.6,46.2C607.6,46.4 607.6,46.4 607.3,46.4C607,46.4 606.9,46.4 607,46.2ZM608.7,46.3C608.8,46.2 608.9,46.2 609,46.2C609.1,46.2 609.3,46.3 609.3,46.3C609.4,46.4 609.4,46.4 609,46.4C608.6,46.4 608.6,46.4 608.7,46.3ZM611.5,46.3C611.6,46.1 612.1,46.1 612.2,46.3C612.3,46.4 612.3,46.4 611.9,46.4C611.6,46.4 611.5,46.4 611.5,46.3ZM613.3,46.3C613.3,46.2 613.4,46.1 613.4,46.1L613.7,46.1C613.9,46.1 614,46.1 614,46.3C614,46.5 614,46.5 613.7,46.5C613.3,46.4 613.2,46.4 613.3,46.3ZM615,46.3C615.1,46.2 615.2,46.2 615.3,46.2C615.4,46.2 615.6,46.3 615.6,46.3C615.7,46.4 615.7,46.4 615.3,46.4C614.9,46.4 614.9,46.4 615,46.3ZM617.8,46.3C617.9,46.1 618.4,46.1 618.5,46.3C618.6,46.4 618.6,46.4 618.2,46.4C617.9,46.4 617.8,46.4 617.8,46.3ZM619.6,46.3C619.6,46.2 619.7,46.1 619.7,46.1L620,46.1C620.2,46.1 620.3,46.1 620.3,46.3C620.3,46.5 620.2,46.5 620,46.5C619.6,46.4 619.6,46.4 619.6,46.3ZM607.1,45.1C607.1,45 607.2,44.9 607.2,44.9L607.4,44.9C607.7,44.9 607.6,45.2 607.3,45.3C607.1,45.3 607.1,45.3 607.1,45.1ZM613.3,45.1C613.3,44.9 613.3,44.9 613.6,44.9C613.9,44.9 613.9,44.9 613.9,45.1C613.8,45.3 613.4,45.3 613.3,45.1ZM619.7,45.1C619.7,44.9 619.7,44.9 619.9,44.9C620,44.9 620.1,45 620.1,45.1C620.1,45.4 619.7,45.3 619.7,45.1ZM607.4,44.1C607.4,44 607.5,43.9 607.5,43.9C607.5,43.9 607.8,43.8 608.3,43.8C608.8,43.8 609.1,43.8 609.1,43.9C609.1,44 608.2,44.3 607.8,44.3C607.4,44.3 607.4,44.2 607.4,44.1ZM612.2,44.1C612,44 611.8,43.9 611.8,43.9C611.8,43.9 612.6,43.8 613.5,43.8C614.5,43.8 615.2,43.8 615.2,43.9C615.2,44 615,44 614.7,44.1C614.3,44.3 612.8,44.3 612.2,44.1ZM618.6,44.1C618.4,44 618.2,43.9 618.2,43.9C618.2,43.9 618.5,43.8 619,43.9C619.7,43.9 619.8,43.9 619.8,44.1C619.8,44.3 619.8,44.3 619.4,44.3C619.2,44.2 618.8,44.2 618.6,44.1ZM607.8,42.9C607.9,42.7 608,42.7 608.5,42.7C609.1,42.7 609.1,42.7 609,42.9C609,43.1 608.9,43.1 608.3,43.1C607.8,43.2 607.8,43.1 607.8,42.9ZM611.8,43.1C611.8,43.1 611.8,42.9 611.7,42.9C611.7,42.8 611.8,42.7 613.5,42.7L615.3,42.7L615.3,42.9C615.3,43.1 615.3,43.1 613.5,43.1L611.8,43.1ZM618.2,43.1C618.2,43.1 618.2,42.9 618.1,42.9C618.1,42.8 618.1,42.7 618.7,42.7C619,42.7 619.3,42.7 619.3,42.8C619.3,42.9 619.3,43 619.4,43C619.4,43.1 619.4,43.2 618.8,43.2C618.5,43.1 618.2,43.1 618.2,43.1ZM608.3,41.9C608.3,41.9 608.3,41.7 608.4,41.7C608.5,41.6 608.6,41.5 609.1,41.6L609.7,41.6L609.5,41.8C609.4,42 609.3,42 608.8,42C608.6,42 608.3,42 608.3,41.9ZM611.4,41.9C611.3,41.8 611.2,41.7 611.2,41.7C611.2,41.7 612.3,41.6 613.6,41.6L616,41.6L615.9,41.8C615.8,42 615.7,42 613.6,42C611.7,42 611.5,42 611.4,41.9ZM617.7,41.8C617.7,41.7 617.6,41.6 617.6,41.6C617.6,41.5 618.7,41.6 618.8,41.7C619,41.9 618.9,42.1 618.4,42.1C617.9,42 617.8,42 617.7,41.8ZM609.1,40.8C609.1,40.8 609.2,40.7 609.2,40.6C609.3,40.4 609.6,40.4 613.6,40.5L617.9,40.5L618.1,40.9L613.5,40.9C611.1,40.9 609.1,40.9 609.1,40.8ZM610.2,39.5L610.5,39.3L616.8,39.3L617.2,39.7L610,39.7L610.2,39.5ZM611.8,38.6C611.9,38.5 613.1,38.2 613.6,38.2C614.1,38.2 615.1,38.4 615.3,38.6C615.4,38.7 614.8,38.7 613.6,38.7C612.5,38.7 611.8,38.6 611.8,38.6ZM602.9,58.7C602.6,58.6 602.6,58.5 602.9,58.3C603.2,58.1 603.8,58.1 604,58.3C604.2,58.5 604.1,58.5 603.9,58.6C603.8,58.8 603.3,58.9 602.9,58.7ZM623.2,58.7C622.9,58.5 622.9,58.4 623.3,58.2C623.7,58 624.1,58.1 624.4,58.3L624.6,58.5L624.3,58.7C624,58.8 623.5,58.8 623.2,58.7ZM606.8,57.7C606.2,57 605.9,56.8 605.4,56.7L605.1,56.7L605.4,56.5C605.6,56.4 605.7,56.3 605.7,56.3C605.8,56.2 605,55.1 604.7,54.9C604.3,54.6 604.2,54.6 603.8,54.8C603.6,54.9 603.4,55 603.1,55C602.5,55 602.4,54.9 602.7,54.7C603.1,54.3 603.7,54.2 604.4,54.4C604.6,54.5 604.8,54.5 604.8,54.5C604.8,54.4 604.2,52.9 604,52.6C603.8,52.2 603.1,51.5 603,51.6C602.3,52 602,52.1 601.6,52C601.2,51.9 600.5,51.6 600.5,51.4C600.5,51.4 600.7,51.2 600.9,51.1C601.2,50.9 601.4,50.9 602,50.9C602.8,50.9 603.3,51.1 604,51.8C604.7,52.4 605,52.9 605.7,54.2C606.5,55.8 607,56.5 608,57.5L608.9,58.4L608.5,58.4C608.3,58.4 608,58.4 607.8,58.5C607.4,58.5 607.4,58.4 606.8,57.7ZM618.9,58.4L618.3,58.4L619,57.7C619.9,56.8 620.7,55.8 621.3,54.5C622,53.1 622.5,52.3 623.1,51.7C624.2,50.7 625.3,50.5 626.3,51.1C626.6,51.3 626.6,51.3 626.5,51.5C626.3,51.7 625.6,52 625.2,52C625.1,52 624.7,51.9 624.5,51.8L624.1,51.6L623.8,51.8C623.3,52.1 622.8,52.9 622.5,53.9C622.3,54.6 622.3,54.6 622.7,54.4C623.1,54.2 623.6,54.2 624,54.4C624.6,54.7 624.6,55 623.8,55C623.6,55 623.3,54.9 623.1,54.8L622.8,54.6L622.5,54.8C622.1,55 621.9,55.3 621.5,56L621.3,56.4L622.1,56.8L621.6,56.9C621.2,56.9 621.1,57 620.4,57.8C620,58.3 619.6,58.6 619.5,58.6C619.4,58.4 619.1,58.4 618.9,58.4ZM591,56.8C590.3,56.5 590.1,55.4 590.5,55C590.6,54.9 591.1,54.6 591.6,54.4C592.4,54.1 592.5,54 592.5,53.8C592.5,53.4 592.7,53.6 592.9,54.2C593.1,54.7 593.1,55 592.8,54.6L592.7,54.4L591.9,54.7C591,55.1 590.6,55.4 590.7,55.8C590.8,56.2 591.1,56.5 591.4,56.6C591.5,56.6 592,56.5 592.5,56.3C593.3,56 593.3,56 593.3,55.7C593.3,55.3 593.5,55.4 593.7,56C593.9,56.5 593.9,56.7 593.6,56.4C593.4,56.2 593.4,56.3 592.7,56.5C591.6,57 591.3,57 591,56.8ZM602.6,56.7C602.4,56.6 602.4,56.6 602.8,56.3C603.2,56 603.7,55.8 604.2,55.8C604.6,55.8 604.7,55.9 604.5,56.3C604.1,56.7 603.2,56.9 602.6,56.7ZM623.3,56.6C623,56.4 622.7,56.2 622.7,55.9C622.7,55.7 622.7,55.7 623,55.7C623.2,55.7 623.5,55.7 623.7,55.8C624.1,55.9 624.8,56.5 624.7,56.6C624.6,56.8 623.6,56.8 623.3,56.6ZM601.5,55.7C601.3,55.6 601.3,55.6 601.6,55.4C602.1,55.1 602.9,55.4 602.5,55.7C602.3,55.9 601.8,55.9 601.5,55.7ZM624.6,55.7C624.4,55.5 624.5,55.5 624.7,55.4C625,55.3 625.5,55.3 625.7,55.6C625.8,55.7 625.8,55.8 625.7,55.8C625.4,55.9 624.8,55.8 624.6,55.7ZM601.3,54.1C601.2,54.1 601,54 600.9,54C600.8,53.9 601.5,53.3 601.8,53.2C602,53.1 602,53 602,53L601.9,52.7C601.9,52.6 601.9,52.6 602,52.6C602.1,52.6 602.3,52.7 602.5,52.7C602.9,52.8 603.2,53 603.1,53.4C603.2,53.8 602,54.2 601.3,54.1ZM625.1,54.1C623.7,53.8 623.5,52.8 624.8,52.6C625.2,52.5 625.2,52.6 625.1,52.9C625,53 625.1,53.1 625.4,53.3C625.6,53.4 625.9,53.6 626,53.8C626.2,54 626.2,54 626,54.1C625.9,54.1 625.8,54.2 625.7,54.2L625.4,54.2C625.4,54.1 625.2,54.1 625.1,54.1ZM591,53.2C590.8,53 590.7,52.7 590.6,52.6C590.5,52.3 590.4,52.3 589.9,52.4C589.6,52.5 589.6,52.5 589.6,52.7C589.6,52.8 589.6,52.9 589.5,52.9C589.5,52.9 589.3,52.7 589.3,52.3C589.2,51.7 589.2,51.5 589.5,51.8C589.6,51.9 589.7,51.9 590.8,51.7C591.8,51.5 592,51.4 592,51.2C592.1,50.8 592.2,51 592.4,51.8C592.6,52.7 592.6,53 592.3,53.3C591.7,53.6 591.4,53.5 591,53.2ZM591.9,52.9C592,52.8 592.1,52.7 592.1,52.5C592.1,52 592,52 591.4,52.1C590.9,52.2 590.9,52.2 590.9,52.5C591,53 591.5,53.2 591.9,52.9ZM622.3,51.8C622.5,51.3 622.7,49.7 622.8,48.7C622.9,47.6 622.7,45.7 622.4,44.4C621.9,42.1 622.2,40.9 623.4,40.3C623.7,40.1 624.1,40 624.2,40C624.4,40 624.4,40 624.4,40.3C624.3,40.8 623.9,41.4 623.6,41.5C623.4,41.6 623.2,41.7 623,41.7L622.7,41.8L622.7,42.5C622.7,43.2 622.7,43.2 623,43.7C623.2,44 623.5,44.3 623.7,44.5C624,44.7 624,44.7 624.2,44.6C624.6,44.2 625.5,44.3 626.1,44.8C626.4,45 626.4,45.1 626.3,45.2C626.1,45.3 625.6,45.5 625.3,45.5C624.9,45.5 624.2,45.3 623.7,45C623.2,44.7 623.2,44.7 623.4,45.5L623.5,46L624.5,46L624,46C623.6,46.2 623.4,46.7 623.5,47.2L623.5,47.5L624,47.2C624.8,46.7 626,46.5 626.5,46.9C626.7,47 626.7,47 626.4,47.3C626,47.7 625.5,47.8 624.7,47.6L624.1,47.4L623.9,47.7C623.2,48.6 623.4,49.9 624.4,50.3C624.7,50.4 624.7,50.4 624.2,50.4C623.9,50.4 623.7,50.3 623.6,50.3C623.5,50.2 623.4,50.3 623.4,50.7C623.4,51.1 623.3,51.2 622.8,51.7L622.3,52.3L622.3,51.8ZM604.4,51.6C604,51.2 603.9,51 603.9,50.7C603.8,50.3 603.8,50.2 603.7,50.3C603.6,50.3 603.3,50.3 603,50.4L602.5,50.4L602.9,50.2C603.1,50.1 603.3,49.9 603.5,49.7C603.7,49.3 603.7,48.5 603.5,48C603.2,47.4 603.1,47.4 602.6,47.6C602,47.8 601.4,47.7 601,47.4C600.5,47.1 600.6,46.9 601.2,46.8C601.9,46.6 602.6,46.8 603.2,47.2C603.4,47.3 603.5,47.4 603.7,47.5L603.7,47.1C603.7,46.6 603.5,46.2 603.2,46C602.9,45.9 603,45.9 603.4,45.9L603.9,45.9L604,45.3C604.1,45 604.1,44.7 604.1,44.7C604.1,44.7 603.9,44.8 603.7,44.9C603.4,45.1 603.1,45.2 602.7,45.3C602.2,45.4 602,45.4 601.6,45.3C600.9,45.1 600.8,45 601.2,44.7C601.9,44.2 602.4,44.1 603,44.4L603.3,44.6L603.7,44.3C604.4,43.7 604.8,42.8 604.7,42C604.7,41.7 604.6,41.7 604.4,41.7C603.7,41.7 603,41.1 602.8,40.2C602.7,39.9 602.9,39.9 603.5,40.1C604.4,40.4 605,41.1 605,42.3C605,42.8 605,43.3 604.8,44.4C604.3,46.8 604.3,49.4 604.8,51.4C604.9,51.8 604.9,52.1 604.9,52.1C604.8,52.1 604.6,51.9 604.4,51.6ZM601.7,49.8C601.5,49.7 601.7,49.4 602.1,49.2C602.5,49.1 602.9,49.2 602.9,49.4L602.9,49.6C602.9,49.6 602.8,49.7 602.6,49.8C602.2,49.9 601.9,49.9 601.7,49.8ZM624.5,49.6L624.2,49.3L624.5,49.2C624.8,49.1 625.3,49.2 625.5,49.5C625.7,49.7 625.5,49.8 625.1,49.8C624.9,49.9 624.7,49.8 624.5,49.6ZM588.9,49.7C588.9,49.6 588.8,49.3 588.8,49C588.8,48.5 588.8,48.3 589,48.7C589.1,48.9 589.2,48.9 590,48.8C591.3,48.7 591.5,48.7 591.5,48.5C591.5,48.4 591.5,48.3 591.6,48.3C591.7,48.3 591.8,48.5 591.8,49.1C591.8,49.6 591.7,49.7 591.6,49.4C591.5,49.2 591.7,49.2 589.7,49.4C589.2,49.4 589.1,49.5 589.1,49.6C589.1,49.7 588.9,49.8 588.9,49.7ZM600.4,48.7C600.1,48.5 600.1,48.5 600.2,48.3C600.6,47.9 601.5,47.9 602,48.3L602.2,48.5L601.9,48.7C601.5,49 600.8,49 600.4,48.7ZM625.3,48.8C625,48.6 625,48.6 625.2,48.3C625.6,47.9 626.6,47.9 626.9,48.3C627.1,48.5 627.1,48.5 626.7,48.7C626.4,49 625.6,49 625.3,48.8ZM589.7,47.7C589,47.4 588.5,46.6 588.7,45.9C589,44.9 590.2,44.6 591,45.1C591.5,45.4 591.7,45.8 591.7,46.3C591.7,46.8 591.5,47.1 591.1,47.5C590.8,47.8 590.1,47.8 589.7,47.7ZM590.7,47.2C590.9,47.2 591.4,46.8 591.5,46.5C591.6,46.1 591.4,45.7 591,45.5C590.8,45.4 590.5,45.4 590.1,45.4C589.6,45.4 589.5,45.5 589.3,45.7C589.1,46 589,46.4 589.2,46.8C589.4,47.1 590.1,47.4 590.5,47.3C590.5,47.3 590.6,47.2 590.7,47.2ZM591.3,44.5C591.1,44.4 591.1,44.2 591.4,44.2C591.6,44.2 591.6,44.1 591.7,43.9C591.8,43.3 591.8,43.3 591.3,43.2L590.8,43.2C590.8,43.2 590.7,43.4 590.7,43.6C590.7,43.8 590.6,44 590.5,44C590.4,44 590.4,43.9 590.4,43.6L590.4,43.1L590.1,43C589.9,43 589.6,42.9 589.5,42.9C589.3,42.9 589.2,42.9 589.2,43.1C589.2,43.2 589.1,43.3 589,43.3C588.9,43.3 588.9,42.8 589.1,42.2C589.2,41.9 589.3,41.9 589.3,42.2C589.3,42.4 589.4,42.4 590.5,42.6C591.6,42.8 591.7,42.8 591.8,42.6C592,42.3 592.1,42.5 592,43.3C591.8,44.6 591.8,44.6 591.3,44.5ZM602.3,43.7C602,43.6 602,43.5 602.3,43.3C602.6,43.1 603.1,43.1 603.4,43.3C603.6,43.4 603.6,43.5 603.4,43.6C603.2,43.8 602.5,43.8 602.3,43.7ZM624,43.7C623.9,43.6 623.7,43.5 623.7,43.5C623.7,43.4 624,43.2 624.4,43.2C624.8,43.2 625.2,43.5 625.1,43.7C624.9,43.8 624.2,43.8 624,43.7ZM601.2,42.6C601.1,42.5 601,42.5 601,42.4C601,42.3 601.2,42.2 601.5,42.1C602,41.8 602,41.8 601.9,41.6C601.8,41.5 601.8,41.4 601.8,41.2C601.8,41.1 601.8,41 602,41.1C602.4,41.2 602.7,41.6 602.7,41.8C602.7,41.9 602.8,42.1 602.8,42.2C602.9,42.4 602.9,42.4 602.7,42.5C602.5,42.7 601.6,42.7 601.2,42.6ZM624.4,42.6C624.1,42.5 624.1,42.3 624.3,42.1C624.4,42 624.4,41.9 624.4,41.9C624.3,41.7 624.5,41.4 624.9,41.2L625.3,41L625.3,41.2C625.3,41.3 625.2,41.5 625.2,41.6C625.1,41.8 625.1,41.8 625.6,42C625.9,42.1 626.1,42.3 626.1,42.3C626.1,42.6 625,42.8 624.4,42.6ZM605.4,42C605.2,41.8 605.3,41.2 605.6,40.5C605.8,40.1 606,39.6 606,39.4C606,39 606,39 605.7,38.8C605.2,38.5 604.9,38 604.9,37.3C604.9,37 604.9,36.7 605,36.6C605.1,36.4 605.1,36.5 605.6,36.7C605.9,36.9 606.1,37.2 606.3,37.5C606.5,37.9 606.6,38 606.6,38.7C606.6,39.2 606.5,39.6 606.4,39.9C606.2,40.7 605.5,42.2 605.4,42ZM621.4,41.5C620.4,39.5 620.3,38.3 620.9,37.3C621.2,36.9 621.9,36.3 622.1,36.5C622.1,36.5 622.2,36.9 622.2,37.2C622.2,37.7 622.2,37.9 622,38.2C621.8,38.6 621.4,39 621.1,39.1C621,39.1 621.2,39.9 621.5,40.8C621.8,41.4 621.8,41.6 621.7,41.9L621.6,42.3L621.4,41.5ZM590.7,40.1C590.4,39.8 590.6,39.4 591,39.4C591.2,39.4 591.4,39.6 591.4,39.8C591.4,40 591.2,40.2 591,40.2C590.9,40.3 590.8,40.2 590.7,40.1ZM604.4,39.7C604.1,39.5 603.8,39.1 603.8,38.7C603.8,38.5 603.9,38.5 604.3,38.7C604.6,38.9 604.9,39.3 604.9,39.7C605,39.9 604.8,39.9 604.4,39.7ZM622.2,39.7C622.2,39.5 622.4,39 622.6,38.8C622.7,38.7 622.9,38.6 623,38.6C623.2,38.5 623.3,38.6 623.3,38.8C623.3,39.2 623.1,39.6 622.7,39.7C622.3,39.9 622.2,39.9 622.2,39.7ZM607.5,38.3C607.6,37.7 607.4,37 606.4,35C605.4,33 605.3,32.7 605.9,33.1C606.2,33.3 606.2,33.3 606.7,33.1C607,33 607.2,32.9 607.3,32.9C607.4,32.9 607.5,33.1 607.6,33.3C607.9,33.8 608.2,33.9 608.5,33.7C608.7,33.5 608.7,33.5 608.7,33.1C608.6,32.3 608.5,32.3 609.4,32C609.8,31.8 610.3,31.6 610.4,31.6C610.5,31.6 610.6,31.6 610.7,31.9C610.9,32.4 611.2,32.7 611.5,32.6C611.9,32.5 612,32.2 611.8,31.6C611.7,31.3 611.7,31 611.7,31C611.8,30.9 613.4,30.3 613.5,30.3C613.6,30.3 614,30.5 614.5,30.7C615.2,31 615.3,31.1 615.3,31.2C615.3,31.3 615.3,31.6 615.2,31.9C615.1,32.3 615.2,32.4 615.4,32.5C615.7,32.7 616,32.6 616.3,32L616.5,31.5L617.3,31.8C617.7,32 618.2,32.2 618.3,32.2C618.5,32.3 618.5,32.3 618.5,32.4C618.5,32.5 618.4,32.8 618.4,33C618.4,33.4 618.4,33.5 618.6,33.6C618.9,33.8 619.2,33.7 619.5,33.2C619.6,33 619.7,32.8 619.8,32.8C619.9,32.8 620.2,32.9 620.4,33C620.9,33.2 620.9,33.2 621.1,33C621.3,32.8 621.5,32.8 621.6,32.9C621.6,32.9 621.2,33.8 620.7,34.8C619.7,36.7 619.5,37.5 619.6,38.1L619.6,38.4L619,37.8C618.7,37.5 618.3,37.2 618,36.9C617.8,36.8 617.6,36.6 617.6,36.6C617.6,36.5 618.4,35.9 618.5,35.9C618.5,35.9 618.6,36 618.6,36.1C618.6,36.3 618.8,36.5 618.9,36.5C619,36.5 619.1,36.3 619.2,36C619.5,35.5 619.5,35.5 618.7,35C617.5,34.3 615.4,33.6 614.3,33.6C613.9,33.6 613.8,33.5 614,33.2C614.5,32.7 618,33.8 619.4,34.8C619.6,34.9 619.7,35 619.7,34.9C619.8,34.8 620.5,33.6 620.5,33.5C620.5,33.5 620.3,33.4 620.2,33.3C619.9,33.2 619.9,33.2 619.6,33.5C619.3,33.8 618.9,33.9 618.3,33.7C617.9,33.5 617.6,33 617.7,32.7C617.7,32.5 617.7,32.5 617.2,32.3L616.7,32.1L616.4,32.4C616,32.8 615.7,32.9 615.3,32.7C614.9,32.5 614.6,32.2 614.6,31.7C614.6,31.4 614.5,31.3 614.3,31.2C614,31.1 613.9,31.1 613.9,31.5C613.9,31.7 613.5,32.9 613.4,32.9C613.3,32.9 613,31.9 612.9,31.4C612.9,31.2 612.8,31.1 612.7,31.2C612.6,31.2 612.5,31.3 612.4,31.3C612.3,31.3 612.2,31.4 612.2,31.8C612.2,32.2 612.2,32.3 611.9,32.5C611.4,33 610.6,32.9 610.2,32.4L610,32.2L609.5,32.4C609,32.6 609,32.6 608.9,33C608.9,33.6 608.5,33.9 607.9,34C607.5,34 607.4,34 607.1,33.8C606.8,33.5 606.8,33.5 606.5,33.6C606.3,33.7 606.2,33.8 606.2,33.8C606.2,33.9 606.7,34.8 606.9,35.2C607,35.3 607.1,35.2 607.8,34.8C609.5,33.8 612,33.1 612.7,33.5C613.1,33.7 612.9,33.8 612.2,33.9C611.3,34 610.2,34.2 609.3,34.7C608.5,35 607.5,35.6 607.4,35.8C607.4,35.8 607.5,36.1 607.6,36.3C607.8,36.7 607.9,36.8 608.1,36.6C608.2,36.5 608.3,36.4 608.3,36.2L608.3,36C608.4,36 609.2,36.6 609.2,36.7C609.2,36.7 609,36.9 608.7,37.1C608.3,37.4 608,37.7 607.7,38C607.5,38.6 607.5,38.6 607.5,38.3ZM592.6,37.5C592.2,37.3 591.7,37 591.6,36.7C591.4,36.3 591.4,35.7 591.6,35.2C591.9,34.6 592,34.5 592.3,34.8C592.7,35.1 592.7,35.2 592.3,35.2C592,35.2 592,35.2 591.8,35.4C591.5,35.9 591.7,36.5 592.3,36.9C592.7,37.1 593.3,37.2 593.6,37C593.9,36.9 594.1,36.4 594,36.1C594,35.8 594.1,35.7 594.2,36C594.4,36.4 594.1,37.2 593.7,37.5C593.5,37.6 593,37.7 592.6,37.5ZM609.8,36.2C609.7,36.1 609.6,35.9 609.6,35.7C609.6,35.5 609.7,35.4 610.4,35.2C611.2,34.9 611.2,34.9 611.4,35C611.7,35.2 611.7,35.8 611.4,35.7C611.2,35.6 610,36.1 610,36.3C610.2,36.5 610,36.5 609.8,36.2ZM617,36.3C617,36.1 615.8,35.7 615.6,35.8C615.5,35.9 615.5,35.8 615.4,35.7C615.3,35.4 615.4,35.2 615.7,35.1C615.9,35 616,35 616.7,35.3C617.4,35.6 617.5,35.6 617.5,35.9C617.5,36.1 617.5,36.2 617.3,36.4C617.1,36.5 617,36.5 617,36.3ZM594.7,35.5C594.7,35.4 594.3,34.8 593.9,34.2C593.1,33.1 592.9,32.8 593.3,32.7C593.4,32.7 594,32.8 594.7,33C595.5,33.2 596.1,33.4 596.2,33.3L596.5,33.2L596.2,33.7C596,34 595.8,34.2 595.8,34.2C595.7,34.2 595.6,34.2 595.8,33.9C595.9,33.8 595.8,33.7 595.5,33.6C595.2,33.5 595.1,33.5 595,33.6C595,33.7 594.8,33.9 594.7,34L594.5,34.3L594.7,34.6C594.9,34.9 594.9,34.9 595.1,34.8C595.4,34.6 595.4,34.8 595.1,35.2C594.8,35.7 594.7,35.8 594.7,35.5ZM594.5,33.8C594.6,33.6 594.7,33.5 594.6,33.4C594.5,33.3 593.4,33 593.4,33.1C593.4,33.2 594.1,34.1 594.2,34.1C594.3,34.1 594.4,34 594.5,33.8ZM612.6,35.4C612.5,35.2 612.5,35.1 612.6,34.9C612.7,34.7 612.8,34.6 613.6,34.6C614.4,34.6 614.5,34.6 614.6,34.8C614.7,35 614.7,35.1 614.6,35.3C614.5,35.5 614.4,35.6 614.3,35.4C614.2,35.2 612.9,35.3 612.8,35.4C612.8,35.7 612.7,35.7 612.6,35.4ZM596.6,32.8C596.6,32.6 596.5,32.4 595.8,31.8C595,31.2 594.9,31.1 594.8,31.2C594.5,31.4 594.5,31.2 594.9,30.7C595.2,30.4 595.3,30.3 595.4,30.3C595.5,30.4 595.4,30.4 595.4,30.5C595.3,30.7 595.2,30.6 596.3,31.6C597.1,32.3 597.2,32.3 597.3,32.2C597.4,32.1 597.5,32.1 597.5,32.2C597.5,32.3 596.9,33 596.7,33.1C596.6,33.1 596.6,33 596.6,32.8ZM597.4,31.4C597.1,31 597.1,30.9 597.6,31.1C597.9,31.2 597.9,31.2 598.1,31C598.4,30.7 598.5,30.5 598.3,30.2C598.1,29.9 597.8,30 597.4,30.2C596.9,30.4 596.5,30.4 596.2,30.1C595.8,29.7 596,29.2 596.6,28.7C597,28.4 597.1,28.4 597.3,28.7C597.5,29 597.4,29.1 597.1,28.9C596.9,28.8 596.8,28.8 596.6,29C596.3,29.3 596.3,29.6 596.6,29.7C596.8,29.8 596.8,29.8 597.3,29.7C598,29.4 598.4,29.5 598.6,29.8C598.9,30.2 598.9,30.4 598.7,30.7C598.5,31 597.9,31.6 597.7,31.6C597.7,31.7 597.5,31.6 597.4,31.4ZM599.2,29.7C599,29.3 599.1,29.2 599.4,29.4C599.7,29.6 599.8,29.6 600.1,29.4C600.3,29.3 600.3,29.1 600.3,28.9C600.3,28.5 600.1,28.4 599.7,28.5C598.5,28.7 598.5,28.7 598.2,28.4C597.7,27.9 598,27.4 598.7,26.9C599.1,26.7 599.1,26.7 599.3,27.1C599.5,27.4 599.3,27.5 599.1,27.3C598.9,27.2 598.9,27.2 598.6,27.3C598.1,27.6 598.2,28.2 598.8,28.1C600.1,27.9 600.1,27.9 600.3,28.2C600.6,28.5 600.6,29 600.4,29.3C600.2,29.6 599.7,29.9 599.4,29.9C599.4,30 599.3,30 599.2,29.7ZM613.1,29.6C612.8,29.3 612.8,29 613.1,28.7C613.3,28.4 613.8,28.4 614.1,28.6C614.4,28.9 614.3,29.3 614.1,29.6C613.7,29.9 613.4,29.9 613.1,29.6ZM601.4,28.5C601.4,28.5 601.4,28.4 601.5,28.3C601.6,28.2 601.4,27.8 600.8,26.9L600.6,26.7L601.8,26.7L601.2,27.1L601.4,27.4C601.8,28 601.8,28 602.2,27.8C602.5,27.6 602.6,27.6 602.5,27.3C602.5,27.1 602.5,27 602.6,27C602.7,27 603,27.4 603,27.5C603,27.5 601.5,28.5 601.3,28.5C601.5,28.6 601.4,28.6 601.4,28.5ZM604.7,26.7L604.8,26.6L604.9,26.6L604.8,26.7C604.7,26.8 604.7,26.8 604.7,26.7Z" style="fill:white;fill-rule:nonzero;"/>
            </g>
        </g>
    </g>
</svg>
